<svg width="520" height="539" viewBox="0 0 520 539" fill="none" xmlns="http://www.w3.org/2000/svg">
<path d="M29.1942 320.937C47.1837 284.676 63.672 299.776 69.6674 311.859C65.3205 343.05 22.0587 361.06 0.489095 366.311C0.300328 366.387 0.137518 366.425 0.000130907 366.429C0.161844 366.39 0.32484 366.351 0.489095 366.311C3.3722 365.143 12.3102 354.969 29.1942 320.937Z" fill="#4E6422"/>
<path d="M63.1931 312.658C74.3369 311.641 99.0351 314.99 108.677 336.518C118.319 358.046 123.443 372.083 124.8 376.411" stroke="#2B3C0A" stroke-width="2"/>
<path d="M76.5426 276.373C90.968 278.783 119.755 293.488 119.501 333.021" stroke="#2B3C0A" stroke-width="2"/>
<path d="M73.8009 287.304C86.6442 283.487 81.5298 272.829 77.3672 267.977C68.416 264.567 25.8439 297.342 5.67674 314.155C7.05811 314.682 13.4259 316.236 27.846 318.246C45.8711 320.758 57.7467 292.076 73.8009 287.304Z" fill="#314210"/>
<path d="M79.3836 258.947C92.5832 261.253 119.351 280.596 120.824 339.512" stroke="#2B3C0A" stroke-width="2"/>
<path d="M54.0068 264.521C79.5823 237.248 82.4377 254.666 81.9466 257.201C73.3672 279.722 40.592 288.271 23.9088 289.929C23.2397 290.122 22.7583 290.15 22.4484 290.06C22.9199 290.022 23.4071 289.979 23.9088 289.929C27.5457 288.88 36.7253 282.95 54.0068 264.521Z" fill="#4E6422"/>
<path d="M278.412 0.000114918C187.152 0.000118868 113.171 73.9812 113.171 165.242L113.171 465.401L443.654 465.401L443.654 165.241C443.654 73.9811 369.673 0.000110968 278.412 0.000114918V0.000114918Z" fill="#A7C6F6"/>
<path d="M194.584 83.6868C198.518 83.6868 202.224 84.6597 205.477 86.3762C195.053 87.5072 186.939 96.3363 186.939 107.061C186.94 117.785 195.054 126.613 205.478 127.743C202.224 129.46 198.518 130.435 194.584 130.435C181.675 130.435 171.21 119.97 171.21 107.061C171.21 94.1517 181.675 83.6868 194.584 83.6868Z" fill="white"/>
<path d="M278.413 193.317L279.318 196.104H282.249L279.878 197.827L280.784 200.615L278.413 198.892L276.041 200.615L276.947 197.827L274.576 196.104H277.507L278.413 193.317Z" fill="white"/>
<path d="M311.799 89.1399L312.705 91.9274H315.636L313.264 93.6502L314.17 96.4378L311.799 94.715L309.428 96.4378L310.333 93.6502L307.962 91.9274H310.893L311.799 89.1399Z" fill="white"/>
<path d="M276.833 46.5793L277.739 49.3669H280.67L278.299 51.0897L279.204 53.8772L276.833 52.1544L274.462 53.8772L275.368 51.0897L272.996 49.3669H275.927L276.833 46.5793Z" fill="white"/>
<path d="M337.442 78.1365L338.348 80.924H341.279L338.907 82.6468L339.813 85.4344L337.442 83.7116L335.071 85.4344L335.976 82.6468L333.605 80.924H336.536L337.442 78.1365Z" fill="white"/>
<path d="M341.587 42.5452L342.493 45.3327H345.424L343.053 47.0555L343.959 49.8431L341.587 48.1203L339.216 49.8431L340.122 47.0555L337.751 45.3327H340.682L341.587 42.5452Z" fill="white"/>
<path d="M311.799 126.401L312.705 129.188H315.636L313.264 130.911L314.17 133.699L311.799 131.976L309.428 133.699L310.333 130.911L307.962 129.188H310.893L311.799 126.401Z" fill="white"/>
<path d="M253.026 93.1741L253.932 95.9616H256.863L254.491 97.6844L255.397 100.472L253.026 98.7492L250.655 100.472L251.56 97.6844L249.189 95.9616H252.12L253.026 93.1741Z" fill="white"/>
<path d="M220.861 215.718L221.767 218.505H224.698L222.327 220.228L223.233 223.016L220.861 221.293L218.49 223.016L219.396 220.228L217.025 218.505H219.956L220.861 215.718Z" fill="white"/>
<path d="M185.896 173.157L186.801 175.945H189.732L187.361 177.668L188.267 180.455L185.896 178.732L183.524 180.455L184.43 177.668L182.059 175.945H184.99L185.896 173.157Z" fill="white"/>
<path d="M246.504 204.714L247.41 207.502H250.341L247.97 209.225L248.876 212.012L246.504 210.289L244.133 212.012L245.039 209.225L242.668 207.502H245.599L246.504 204.714Z" fill="white"/>
<path d="M250.65 169.123L251.556 171.911H254.487L252.115 173.633L253.021 176.421L250.65 174.698L248.279 176.421L249.184 173.633L246.813 171.911H249.744L250.65 169.123Z" fill="white"/>
<path d="M220.861 252.979L221.767 255.766H224.698L222.327 257.489L223.233 260.276L220.861 258.554L218.49 260.276L219.396 257.489L217.025 255.766H219.956L220.861 252.979Z" fill="white"/>
<path d="M162.088 219.752L162.994 222.54H165.925L163.554 224.262L164.46 227.05L162.088 225.327L159.717 227.05L160.623 224.262L158.252 222.54H161.183L162.088 219.752Z" fill="white"/>
<path d="M344.997 454.384C345.082 448.411 356.64 380.448 362.409 347.213L307.694 326.899L320.758 444.271C306.244 444.064 306.564 458.621 308.539 465.925L344.849 464.722L344.997 454.384Z" fill="#FFD3C2"/>
<path d="M381.75 190.311C386.418 206.838 377.658 222.043 372.695 227.579C362.257 240.342 328.666 253.811 302.125 246.556C296.557 245.034 282.645 237.171 277.172 218.676C272.295 202.197 276.313 188.079 279 178.665L301.03 169.217L327.153 163.23L357.369 160.705C363.551 163.687 377.083 173.783 381.75 190.311Z" fill="#FFD3C2"/>
<path d="M423.952 288.571C416.269 284.18 381.796 248.686 375.599 238.503L314.628 248.975C307.745 271.808 303.053 312.993 310.331 335.701L347.156 351.097L352.48 458.041C334.556 457.477 334.211 472.064 336.279 479.428C348.344 479.809 372.828 480.234 374.25 478.896C375.672 477.558 386.583 437.882 393.279 420.037C392.684 438.919 416.256 453.712 426.697 456.923C395.905 455.952 386.143 472.548 385.111 480.967C405.738 483.346 474.838 480.385 483.027 475.985C491.217 471.586 493.392 457.296 495.496 390.517C497.601 323.739 433.555 294.06 423.952 288.571Z" fill="#FFD3C2"/>
<path d="M438.602 344.678C422.509 348.218 390.463 365.478 391.028 406.2C391.594 446.921 422.104 458.83 437.288 459.694" stroke="#FEBFA7" stroke-width="3" stroke-linecap="round"/>
<path d="M313.57 166.343C334.514 212.237 356.826 190.965 382.447 207.748C388.142 182.687 368.101 165.944 357.369 160.705L327.154 163.23L313.57 166.343Z" fill="#FEBFA7"/>
<path d="M344.547 138.348C347.63 140.281 354.38 154.058 357.369 160.705L327.154 163.23C327.894 152.062 340.694 135.931 344.547 138.348Z" fill="#FFD3C2"/>
<path d="M273.733 155.676C286.463 153.639 298.252 165.088 302.555 171.067C295.879 175.53 281.822 183.297 279.001 178.665C276.18 174.032 274.313 161.409 273.733 155.676Z" fill="#E95218"/>
<path d="M275.104 200.335C299.317 191.834 306.806 176.536 307.295 167.758C293.847 169.877 286.809 175.021 279.621 177.952C276.218 181.813 275.074 195.527 275.104 200.335Z" fill="#E95218"/>
<path d="M515.746 493.011C525.067 469.38 503.3 452.766 488.709 446.136L474.243 460.688L480.117 469.717C498.446 491.305 424.244 491.629 384.653 493.883C345.063 496.137 335.52 497.337 337.075 511.488C338.168 521.432 356.47 520.405 366.311 520.318C410.544 520.211 505.416 519.199 515.746 493.011Z" fill="#FFD3C2"/>
<path d="M392.229 493.477C389.58 493.613 387.045 493.746 384.653 493.883C345.063 496.137 335.52 497.337 337.075 511.488C338.168 521.432 356.471 520.405 366.311 520.318C383.847 520.276 409.34 520.089 434.37 518.25C433.603 508.813 411.516 505.735 400.299 505.381C400.5 498.989 395.93 495.218 392.229 493.477Z" fill="#E95218"/>
<path d="M302.427 246.359C325.428 250.308 364.072 237.092 372.692 227.563L375.911 238.367C373.089 241.385 361.755 249.52 341.493 255.849C321.231 262.179 309.033 261.005 305.468 259.626L302.427 246.359Z" fill="#E95218"/>
<circle cx="9.63174" cy="9.63174" r="9.63174" transform="matrix(-0.974731 0.223382 0.223382 0.974731 348.472 249.507)" fill="#FF713A"/>
<path d="M278.555 160.364C286.293 158.54 295.365 167.22 298.934 171.788C296.985 172.235 287.207 176.015 282.562 177.849C279.512 171.93 278.62 163.726 278.555 160.364Z" fill="#FEBFA7"/>
<path d="M340.325 144.922C343.865 141.632 348.58 153.924 350.495 160.481C344.849 162.031 335.233 162.247 331.131 162.161C330.957 159.444 335.901 149.034 340.325 144.922Z" fill="#FEBFA7"/>
<path d="M314.634 208.779L327.305 205.875C328.228 208.314 328.659 213.516 323.006 214.811C317.352 216.107 315.069 211.329 314.634 208.779Z" fill="black"/>
<path d="M324.519 223.933L324.545 223.928C324.137 224.599 323.429 225.37 322.479 225.78C321.429 226.233 320.011 226.278 318.233 225.104L317.683 225.94C319.712 227.279 321.484 227.298 322.874 226.698C323.973 226.225 324.786 225.385 325.29 224.619C326.95 225.829 328.479 225.916 329.743 225.41C331.073 224.878 332.013 223.731 332.481 222.85L331.598 222.381C331.2 223.131 330.412 224.066 329.372 224.482C328.382 224.878 327.067 224.843 325.47 223.493L325.452 223.477L323.802 214.65L322.818 214.833L324.519 223.933Z" fill="black"/>
<path d="M334.536 196.525C335.71 198.742 343.537 199.936 350.497 196.273C357.457 192.61 361.252 185.157 359.978 182.75C358.428 179.825 350.739 179.847 343.779 183.51C336.819 187.174 333.362 194.308 334.536 196.525Z" fill="#FDBF31"/>
<path d="M347.633 181.861C346.352 182.292 345.053 182.84 343.779 183.511C342.604 184.129 341.531 184.848 340.561 185.624C339.542 187.303 339.149 189.365 339.623 191.431C340.484 195.19 343.918 197.689 347.641 197.5C348.596 197.173 349.555 196.769 350.497 196.273C351.629 195.677 352.676 194.98 353.632 194.222C354.882 192.464 355.406 190.201 354.886 187.933C354.084 184.433 351.052 182.024 347.633 181.861Z" fill="black"/>
<path d="M349.365 188.156L354.301 186.269C353.844 185.325 353.211 184.501 352.451 183.827L349.365 188.156Z" fill="#FBFDFA"/>
<path d="M311.769 203.025C311.804 205.534 305.512 210.34 297.648 210.469C289.784 210.598 282.876 205.883 282.839 203.159C282.793 199.849 289.548 196.177 297.412 196.048C305.276 195.919 311.735 200.517 311.769 203.025Z" fill="#FDBF31"/>
<path d="M294.184 196.302C291.04 197.885 289.256 201.458 290.078 205.043C290.604 207.338 292.09 209.162 294.013 210.193C295.186 210.388 296.405 210.49 297.648 210.469C299.1 210.446 300.497 210.261 301.811 209.962C304.593 208.252 306.111 204.905 305.341 201.545C304.813 199.24 303.318 197.408 301.381 196.379C300.119 196.149 298.787 196.026 297.412 196.048C296.309 196.066 295.228 196.156 294.184 196.302Z" fill="black"/>
<path d="M300.066 202.574L305.08 200.655C304.706 199.606 304.125 198.677 303.392 197.906L300.066 202.574Z" fill="#FCFDFB"/>
<path d="M436.461 323.614C434.378 328.114 432.461 335.464 441.461 328.864C449.722 322.806 455.664 315.301 458.131 311.531C453.845 307.926 449.553 304.771 445.473 302.034L436.461 323.614ZM418.45 286.691C417.871 295.846 416.196 309.4 412.424 316.846C407.779 326.017 409.522 330.326 410.974 331.334C418.291 327.451 432.824 314.825 433.804 294.891C427.794 291.532 423.14 289.378 421.039 288.263C420.321 287.882 419.448 287.35 418.45 286.691ZM396.239 268.776C390.997 282.642 382.582 308.179 386.82 310.491C391.22 312.891 396.653 303.825 398.82 298.991L407.865 278.749C404.11 275.71 400.071 272.256 396.239 268.776Z" fill="#FEBFA7"/>
<rect x="192.479" y="500.326" width="117.229" height="8.64495" fill="#66832C"/>
<path d="M216.532 535.713L198.301 508.789H303.888L285.657 535.713H216.532Z" fill="#93C91C"/>
<ellipse cx="251.095" cy="535.713" rx="34.5442" ry="2.61691" fill="#93C91C"/>
<ellipse cx="251.094" cy="508.971" rx="58.6147" ry="4.8872" fill="#66832C"/>
<ellipse cx="251.094" cy="500.426" rx="58.6147" ry="4.8872" fill="#ACD629"/>
<path d="M28.6445 370.107L36.6973 389.281L39.3817 392.732L71.3511 389.281L60.2811 370.107H28.6445Z" fill="#E95218"/>
<path d="M36.5015 483.854V390.122C72.8175 383.733 128.132 387.459 151.25 390.122V484.59L36.5015 483.854Z" fill="#FF713A"/>
<path d="M175.678 477.729L151.25 484.695V389.701L163.44 371.207H188.344L175.678 388.44V477.729Z" fill="#E95218"/>
<rect x="83.2891" y="386.594" width="20.7079" height="21.861" fill="#FFD3C2"/>
<rect x="83.2891" y="465.401" width="20.7079" height="19.2939" fill="#FFD3C2"/>
<path d="M159.41 389.473L169.797 388.322V446.994L159.41 449.87V389.473Z" fill="#FFD3C2"/>
<path d="M67.0937 433.259C78.9088 418.055 100.497 426.091 110.325 432.422C109.708 432.046 110.456 429.87 118.378 424.177C126.299 418.484 125.769 423.595 124.513 426.861L120.678 438.366C121.126 437.663 122.519 438.673 124.513 448.336C126.507 458 115.885 446.994 110.325 440.283C89.4135 455.727 74.0534 447.252 67.2015 439.163C65.766 437.468 65.731 435.013 67.0937 433.259Z" fill="#FFD3C2"/>
</svg>
