<svg width="233" height="156" viewBox="0 0 233 156" fill="none" xmlns="http://www.w3.org/2000/svg">
<path d="M55.8716 102.167C28.1035 2.16748 113.722 19.1675 160.002 40.1675C174.931 42.0008 208.82 51.5675 224.943 75.1675C241.066 98.7675 227.556 103.001 218.785 102.167C222.816 105.367 220.464 110.167 218.785 112.167C209.827 120.167 197.138 108.834 191.913 102.167H152.724H55.8716Z" fill="#A9C4ED"/>
<path d="M160.529 42.7621C159.96 54.1461 167.881 62.6841 171.913 65.5301C180.558 72.2391 204.286 75.9725 220.381 67.3443C223.758 65.534 231.592 58.3842 232.391 45.6081C233.102 34.2241 228.41 25.6862 225.276 19.9942L209.623 17.1482H191.835L171.913 19.9942C168.356 22.8402 161.098 31.3782 160.529 42.7621Z" fill="#A9C4ED"/>
<path d="M176.813 3.68025C175.123 5.40487 172.898 15.3412 171.997 20.0938L191.889 17.0484C189.684 9.95513 178.926 1.52449 176.813 3.68025Z" fill="#A9C4ED"/>
<path d="M225.435 4.49055C216.888 4.89924 210.788 13.9408 208.806 18.4106C213.75 20.4011 223.939 23.534 225.141 20.1408C226.344 16.7476 225.838 8.29345 225.435 4.49055Z" fill="#A9C4ED"/>
<path d="M222.941 8.19219C217.666 8.05988 212.954 14.9332 211.257 18.3864C212.584 18.4114 219.45 19.5361 222.717 20.0954C223.893 15.8358 223.356 10.3851 222.941 8.19219Z" fill="#D9D9D9" fill-opacity="0.7"/>
<path d="M49.1977 97.8158C49.1977 95.9582 49.6064 94.7989 50.0087 94.0775C50.4146 93.3498 50.9752 92.7802 51.6844 92.308C53.277 91.2476 55.4476 90.8158 56.7665 90.8158C61.5438 90.8158 65.4165 87.2341 65.4165 82.8158C65.4165 78.3975 61.5438 74.8158 56.7665 74.8158C52.6791 74.8158 46.7403 75.8841 41.5751 79.3236C35.969 83.0568 31.8977 89.2086 31.8977 97.8158V130.836C31.6719 132.302 30.9311 134.645 29.5567 136.482C28.2733 138.197 26.8366 139.066 24.5992 139.066C22.0057 139.066 20.5718 138.121 19.4548 136.741C18.0984 135.064 17.4033 132.842 17.2564 131.506C16.773 127.111 12.5281 123.91 7.77541 124.357C3.02275 124.804 -0.438238 128.73 0.0450858 133.125C0.438874 136.706 1.98726 141.859 5.60445 146.328C9.4612 151.094 15.7315 155.066 24.5992 155.066C33.8231 155.066 40.0906 150.518 43.7809 145.587C47.2718 140.923 48.7692 135.619 49.1534 132.125L49.1977 131.721V97.8158Z" fill="#A9C4ED"/>
<path d="M220.156 67.2615C206.497 79.3611 178.716 66.5543 171.727 61.6675L168.25 64.0425C170.523 65.5767 182.243 78.1023 196.29 79.1933C210.337 80.2844 218.054 77.7159 220.156 76.2953V67.2615Z" fill="#727272"/>
<circle cx="203.493" cy="79.4562" r="6.39268" fill="#0F1836"/>
<path d="M180.556 7.26998C177.762 5.69422 176.621 14.3572 176.399 18.8856C180.283 19.0127 186.523 17.6641 189.157 16.974C188.849 15.1933 184.048 9.23967 180.556 7.26998Z" fill="#CBD3DF"/>
<path d="M206.688 44.7594H198.06C197.825 46.474 198.317 49.9032 202.166 49.9032C206.016 49.9032 206.785 46.474 206.688 44.7594Z" fill="black"/>
<path d="M202.704 55.9696C203.05 56.3054 203.566 56.6455 204.165 56.7557C204.849 56.8817 205.717 56.7241 206.658 55.7382L207.02 56.0839L207.381 56.4296C206.232 57.6334 205.033 57.9324 203.983 57.7391C203.237 57.6018 202.609 57.2228 202.156 56.8251C201.258 57.7896 200.271 58.0683 199.353 57.9247C198.362 57.7695 197.551 57.1372 197.101 56.618L197.857 55.9637C198.209 56.3709 198.825 56.8305 199.508 56.9374C200.131 57.0346 200.905 56.8549 201.697 55.8182L201.458 49.9237L202.458 49.8827L202.704 55.9696Z" fill="black"/>
<path d="M191.995 39.7828C191.564 41.3912 186.678 43.3245 181.632 41.9865C176.587 40.6485 173.026 36.3899 173.494 34.6436C174.063 32.5212 179.04 31.3957 184.086 32.7337C189.132 34.0717 192.426 38.1744 191.995 39.7828Z" fill="#FDBF31"/>
<path d="M181.35 32.238C182.242 32.3269 183.163 32.4893 184.086 32.7341C184.938 32.9599 185.739 33.2649 186.481 33.6228C187.39 34.5585 187.95 35.8346 187.95 37.2419C187.95 39.8022 186.098 41.9277 183.661 42.3572C182.995 42.287 182.315 42.168 181.632 41.9871C180.811 41.7693 180.031 41.4718 179.299 41.1228C178.231 40.171 177.556 38.7857 177.556 37.2419C177.556 34.8581 179.162 32.8503 181.35 32.238Z" fill="black"/>
<path d="M181.161 36.5673L177.688 36.077C177.843 35.3992 178.131 34.7725 178.523 34.2245L181.161 36.5673Z" fill="#FBFDFA"/>
<path d="M207.688 40.6126C208.037 42.2406 212.82 44.4171 217.927 43.3345C223.033 42.2518 226.804 38.1775 226.424 36.4099C225.963 34.2616 221.048 32.8873 215.941 33.97C210.835 35.0527 207.338 38.9846 207.688 40.6126Z" fill="#FDBF31"/>
<path d="M218.068 33.6559C220.337 34.2137 222.02 36.2609 222.02 38.7018C222.02 40.2649 221.328 41.6652 220.236 42.6178C219.507 42.9172 218.734 43.1635 217.927 43.3346C216.985 43.5345 216.052 43.622 215.158 43.6237C213.105 42.9293 211.626 40.9891 211.626 38.7018C211.626 37.1324 212.323 35.7259 213.422 34.7731C214.205 34.437 215.049 34.1597 215.942 33.9703C216.658 33.8185 217.371 33.7157 218.068 33.6559Z" fill="black"/>
<path d="M215.192 38.585L211.664 38.0869C211.751 37.353 211.989 36.6661 212.349 36.0586L215.192 38.585Z" fill="#FCFDFB"/>
<path d="M148.592 101.331C148.592 97.9717 147.233 95.4961 145.032 93.7662C142.87 92.0663 139.936 91.1157 136.784 90.6427C131.665 89.8743 125.75 90.3347 121.037 91.1373C124.573 87.7555 128.292 82.8281 129.972 77.1105C131.01 73.5786 131.273 69.733 130.217 65.7762C129.162 61.8191 126.803 57.8067 122.687 53.9156C114.438 46.1188 105.433 44.481 97.5521 45.6208C89.7066 46.7555 82.9815 50.6375 79.1658 53.887C78.8188 54.1825 78.7721 54.7093 79.0612 55.0639C79.3503 55.4183 79.8659 55.4663 80.2128 55.1708C83.8393 52.0825 90.2894 48.3587 97.7813 47.2751C105.238 46.1968 113.733 47.7283 121.577 55.1423C125.506 58.8564 127.677 62.6076 128.639 66.2162C129.602 69.8252 129.37 73.3484 128.405 76.6298C126.468 83.2223 121.584 88.7925 117.653 91.8947L118.329 93.372C123.215 92.269 130.513 91.3904 136.547 92.2963C139.567 92.7495 142.187 93.6377 144.036 95.0909C145.846 96.5141 146.956 98.5066 146.956 101.331C146.956 101.793 147.322 102.167 147.774 102.167C148.226 102.167 148.592 101.793 148.592 101.331Z" fill="#727272"/>
<path d="M222.387 84.1964C222.102 84.8725 220.972 87.0346 218.58 88.7511C216.224 90.4415 212.566 91.7582 207.08 90.6847L206.696 92.6476C212.714 93.8251 216.934 92.3935 219.746 90.3761C222.521 88.3848 223.849 85.8794 224.231 84.9718L222.387 84.1964Z" fill="#727272"/>
<path d="M184.598 86.9175C184.598 85.4796 183.869 83.5688 182.84 81.5405C181.789 79.4683 180.346 77.1207 178.757 74.7534C175.577 70.0163 171.767 65.1262 169.226 62.0659C168.86 61.6249 168.169 61.5364 167.683 61.8687C167.197 62.2009 167.1 62.828 167.466 63.2691C169.976 66.2921 173.742 71.1275 176.875 75.7945C178.442 78.1288 179.838 80.4027 180.839 82.3765C181.862 84.3946 182.395 85.9554 182.395 86.9175C182.395 87.8738 182.728 88.7364 183.671 89.2153C184.449 89.6108 185.441 89.6144 186.321 89.564C188.293 89.4511 190.606 89.0117 193.725 89.104C199.694 89.2807 208.142 91.4845 217.603 103.015C217.967 103.458 218.657 103.549 219.145 103.219C219.633 102.889 219.733 102.263 219.37 101.82C209.549 89.851 200.502 87.3044 193.796 87.106C190.579 87.0108 187.759 87.4776 186.183 87.5679C185.29 87.619 184.903 87.5483 184.747 87.4693C184.711 87.451 184.696 87.4376 184.676 87.3989C184.646 87.3407 184.598 87.2011 184.598 86.9175Z" fill="#727272"/>
<path d="M160.75 39.6675C160.737 40.0624 160.745 40.4979 160.774 40.968C161.147 51.2815 165.83 60.8507 167.75 63.73L172.812 62.355C164.512 57.0056 161.12 46.5488 160.774 40.968C160.758 40.5357 160.75 40.102 160.75 39.6675Z" fill="#727272"/>
<path d="M181.75 113.167C178.15 108.767 183.25 102.334 186.25 99.6675L201.75 106.667C192.5 113.167 185.35 117.567 181.75 113.167Z" fill="#A9C4ED"/>
</svg>
