<svg width="277" height="205" viewBox="0 0 277 205" fill="none" xmlns="http://www.w3.org/2000/svg">
<path d="M220.813 3.68012C222.927 1.52517 233.685 9.95526 235.89 17.0483L226.912 18.4223L235.835 17.1479H253.417C255.869 12.4319 261.633 4.86377 269.435 4.49067C269.832 8.23482 270.326 16.4864 269.193 19.979L269.276 19.9946C272.41 25.6865 277.102 34.2242 276.391 45.6079C275.592 58.384 267.758 65.5339 264.381 67.3442C263.962 67.5685 263.538 67.7819 263.109 67.9897C265.232 70.2294 267.192 72.6263 268.943 75.1889C285.066 98.7889 271.556 103.023 262.785 102.189C266.816 105.389 264.464 110.189 262.785 112.189C256.566 117.742 248.551 113.976 242.481 108.924C234.818 114.103 228.914 117.034 225.75 113.167C223.023 109.834 225.289 105.334 227.852 102.189H99.8719C72.1038 2.18939 157.723 19.1889 204.003 40.1889C204.251 40.2193 204.504 40.2519 204.762 40.2866C206.151 30.1479 212.619 22.6304 215.913 19.9946L216.018 19.979C216.933 15.183 219.137 5.39098 220.813 3.68012ZM235.959 102.246C235.944 102.227 235.929 102.208 235.914 102.189H235.833L235.959 102.246Z" fill="#A9C4ED"/>
<path d="M259.941 33.9698C265.048 32.8871 269.963 34.2619 270.424 36.4102C270.804 38.178 267.033 42.2513 261.927 43.3341C256.82 44.4167 252.037 42.2404 251.688 40.6124C251.338 38.9843 254.835 35.0525 259.941 33.9698ZM217.494 34.6436C218.063 32.5213 223.04 31.3957 228.086 32.7335C233.132 34.0715 236.426 38.1749 235.995 39.7833C235.563 41.3915 230.678 43.3241 225.632 41.9864C220.587 40.6484 217.026 36.39 217.494 34.6436Z" fill="#FDBF31"/>
<path d="M250.688 44.7598C250.783 46.4302 250.055 49.7254 246.458 49.8945L246.704 55.9697C247.05 56.3055 247.566 56.6457 248.165 56.7559C248.849 56.8818 249.717 56.7242 250.658 55.7383L251.021 56.084L251.381 56.4297C250.232 57.6332 249.033 57.9324 247.983 57.7393C247.237 57.602 246.609 57.2228 246.156 56.8252C245.258 57.7897 244.271 58.0684 243.353 57.9248C242.362 57.7695 241.551 57.1373 241.101 56.6182L241.857 55.9639C242.209 56.371 242.825 56.8306 243.508 56.9375C244.131 57.0347 244.905 56.8551 245.697 55.8184L245.458 49.9238L246.042 49.8994C242.307 49.8264 241.827 46.4559 242.06 44.7598H250.688ZM262.068 33.6562C264.337 34.2142 266.02 36.2614 266.02 38.7021C266.019 40.2651 265.328 41.6656 264.236 42.6182C263.507 42.9176 262.734 43.1639 261.927 43.335C260.985 43.5348 260.052 43.6223 259.158 43.624C257.105 42.9297 255.626 40.9893 255.626 38.7021C255.626 37.1329 256.323 35.7262 257.422 34.7734C258.205 34.4373 259.049 34.1601 259.942 33.9707C260.658 33.8189 261.371 33.716 262.068 33.6562ZM225.35 32.2383C226.242 32.3272 227.163 32.4896 228.086 32.7344C228.938 32.9602 229.739 33.2651 230.481 33.623C231.39 34.5587 231.95 35.8351 231.95 37.2422C231.95 39.8023 230.098 41.9279 227.661 42.3574C226.995 42.2872 226.315 42.1682 225.632 41.9873C224.811 41.7695 224.031 41.472 223.299 41.123C222.231 40.1713 221.556 38.7859 221.556 37.2422C221.556 34.8585 223.162 32.8507 225.35 32.2383Z" fill="black"/>
<path d="M266.941 8.19219C261.666 8.05988 256.954 14.9332 255.257 18.3864C256.584 18.4114 263.45 19.5361 266.717 20.0954C267.893 15.8358 267.356 10.3851 266.941 8.19219Z" fill="#D9D9D9" fill-opacity="0.7"/>
<path d="M93.1937 97.8114C93.1932 95.9538 93.6017 94.7944 94.0038 94.0729C94.4095 93.3451 94.97 92.7753 95.6791 92.303C97.2714 91.2422 99.4419 90.8099 100.761 90.8096C105.538 90.8085 109.41 87.2259 109.409 82.8076C109.408 78.3893 105.534 74.8085 100.757 74.8096C96.6697 74.8106 90.7311 75.8802 85.5667 79.3209C79.9615 83.0555 75.8917 89.2082 75.8937 97.8154L75.9014 130.836C75.6759 132.302 74.9357 134.645 73.5617 136.482C72.2787 138.197 70.8422 139.067 68.6048 139.067C66.0113 139.068 64.5772 138.123 63.4599 136.744C62.1031 135.067 61.4075 132.845 61.2602 131.509C60.7758 127.114 56.5302 123.914 51.7776 124.362C47.025 124.81 43.565 128.737 44.0493 133.132C44.4439 136.713 45.9935 141.866 49.6118 146.334C53.4696 151.099 59.7409 155.069 68.6086 155.067C77.8325 155.065 84.0989 150.516 87.788 145.584C91.2778 140.919 92.774 135.615 93.1574 132.121L93.2016 131.717L93.1937 97.8114Z" fill="#A9C4ED"/>
<path d="M224.556 7.26998C221.762 5.69422 220.621 14.3572 220.399 18.8856C224.283 19.0127 230.523 17.6641 233.157 16.974C232.849 15.1933 228.048 9.23967 224.556 7.26998Z" fill="#CBD3DF"/>
<path d="M225.161 36.5673L221.688 36.077C221.843 35.3992 222.131 34.7725 222.523 34.2245L225.161 36.5673Z" fill="#FBFDFA"/>
<path d="M259.192 38.585L255.664 38.0869C255.751 37.353 255.989 36.6661 256.349 36.0586L259.192 38.585Z" fill="#FCFDFB"/>
<path d="M211.683 61.8683C212.169 61.5362 212.86 61.6247 213.226 62.0656C215.767 65.1258 219.577 70.0161 222.757 74.7531C224.346 77.1203 225.789 79.468 226.84 81.5402C227.869 83.5684 228.598 85.4793 228.598 86.9171C228.598 87.2007 228.647 87.3404 228.677 87.3986C228.696 87.4371 228.711 87.4507 228.747 87.4689C228.903 87.5479 229.29 87.6186 230.183 87.5675C231.759 87.4772 234.579 87.0105 237.796 87.1056C241.562 87.2171 246.068 88.0703 251.034 90.9171L251.08 90.6847C256.566 91.7582 260.224 90.4414 262.58 88.7511C264.972 87.0347 266.102 84.8726 266.388 84.1964L268.231 84.9718C267.849 85.8796 266.521 88.385 263.746 90.3761C261.537 91.9605 258.46 93.1821 254.326 93.0636C257.23 95.1883 260.262 98.0313 263.37 101.819C263.733 102.262 263.633 102.889 263.145 103.219C262.657 103.549 261.967 103.458 261.603 103.015C252.142 91.4845 243.694 89.2804 237.725 89.1037C234.606 89.0114 232.293 89.4507 230.321 89.5636C229.441 89.614 228.449 89.6105 227.671 89.215C226.728 88.7361 226.395 87.8733 226.395 86.9171C226.395 85.955 225.862 84.3941 224.839 82.3761C223.838 80.4024 222.442 78.1283 220.875 75.7941C217.742 71.1272 213.977 66.2917 211.467 63.2687C211.101 62.8276 211.197 62.2005 211.683 61.8683ZM141.553 45.6203C149.433 44.4806 158.438 46.1185 166.687 53.9152C170.803 57.8062 173.163 61.8185 174.218 65.7755C175.274 69.7323 175.01 73.5786 173.972 77.1105C172.292 82.828 168.573 87.7551 165.037 91.1369C169.75 90.3343 175.665 89.8743 180.784 90.6427C183.936 91.1157 186.87 92.0659 189.032 93.7658C191.233 95.4957 192.593 97.9719 192.593 101.331C192.592 101.793 192.226 102.167 191.774 102.167C191.322 102.167 190.956 101.793 190.956 101.331C190.956 98.5068 189.846 96.5142 188.036 95.091C186.187 93.6378 183.567 92.7492 180.547 92.296C174.513 91.3903 167.215 92.2692 162.329 93.3722L161.653 91.8947C165.584 88.7925 170.468 83.2223 172.405 76.63C173.37 73.3487 173.602 69.8249 172.639 66.216C171.677 62.6074 169.506 58.8558 165.577 55.1417C157.733 47.7279 149.238 46.1963 141.781 47.2746C134.289 48.3582 127.839 52.0828 124.213 55.171C123.866 55.4662 123.35 55.4179 123.061 55.0636C122.772 54.7091 122.819 54.1824 123.166 53.8869C126.982 50.6374 133.707 46.755 141.553 45.6203Z" fill="#93B6EC"/>
<path d="M246.25 72.375C217.05 72.375 205.25 50.875 204.75 40.25C205.085 47.3769 202.745 57.4374 218.375 70.625C230.375 80.75 253.562 79.1875 262.188 75.4375L263.188 68C260.477 72.6941 246.25 72.375 246.25 72.375Z" fill="#FEBFA7"/>
<path d="M247.493 85.8489C251.024 85.8489 253.886 82.9868 253.886 79.4562C253.886 75.9256 251.024 73.0635 247.493 73.0635C243.962 73.0635 241.1 75.9256 241.1 79.4562C241.1 82.9868 243.962 85.8489 247.493 85.8489Z" fill="#0F1836"/>
</svg>
