<svg width="387" height="427" viewBox="0 0 387 427" fill="none" xmlns="http://www.w3.org/2000/svg">
<rect width="386.453" height="426.589" transform="matrix(-1 0 0 1 386.453 0)" fill="white"/>
<path d="M29.72 143.508C67.8549 93.73 112.086 119.982 129.435 139.331C152.207 146.275 143.888 122.815 136.883 110.218C128.438 91.8826 126.122 49.0361 184.415 24.3307C257.281 -6.55098 299.251 72.1467 310.247 97.5913C321.244 123.036 318.296 130.136 285.551 117.632C259.355 107.629 236.579 117.041 228.465 122.997C222.007 134.28 216.856 154.64 247.922 145.813C286.755 134.781 319.564 144.173 343.165 147.148C366.765 150.124 365.286 191.813 365.358 218.59C365.431 245.367 336.345 221.419 321.105 205.538C305.864 189.658 271.759 182.73 253.379 183.286C234.998 183.843 205.017 203.464 253.871 204.779C302.724 206.095 300.004 217.247 338.098 227.059C376.191 236.871 377.623 258.071 382.596 303.94C386.574 340.636 349.153 310.206 329.946 290.405C305.39 273.295 257.383 245.948 261.8 273.437C267.321 307.798 301.554 308.501 333.879 326.29C359.739 340.52 352.83 358.54 346.143 365.771C336.442 373.251 317.798 390.656 320.835 400.432C324.631 412.652 322.039 417.58 302.975 405.98C283.91 394.38 282.194 402.128 227.701 402.565C184.106 402.914 184.111 367.318 189.563 349.476C193.394 329.733 198.032 285.825 185.942 268.142C170.829 246.037 158.79 316.775 173.711 348.216C185.647 373.369 169.417 375.318 159.81 373.149C150.225 369.942 127.111 361.455 111.341 353.161C91.6281 342.793 131.412 255.19 135.428 241.573C139.444 227.957 128.712 219.953 115.716 231.205C102.719 242.458 97.0513 260.71 91.7755 290.179C87.5549 313.754 74.3499 304.869 68.275 297.48C39.5338 266.897 -8.41488 193.286 29.72 143.508Z" fill="#66832C"/>
<path d="M222.327 68.9928C215.756 68.011 209.032 71.0375 202.569 76.3056C196.089 81.5888 189.716 89.2495 183.792 97.8664C172.26 114.641 162.305 135.224 156.471 149.519C155.957 148.997 155.454 148.502 154.962 148.028C150.97 144.189 147.535 141.716 143.967 138.632C143.549 138.27 142.917 138.317 142.556 138.734C142.195 139.152 142.241 139.783 142.659 140.144C146.404 143.382 149.612 145.659 153.575 149.47C157.262 153.017 161.545 157.848 167.246 165.835C148.908 166.146 122.27 170.202 99.5581 181.479C76.0165 193.168 56.5635 212.695 55.1628 243.911C55.1382 244.462 55.5656 244.93 56.1171 244.955C56.6685 244.979 57.1364 244.552 57.1612 244.001C58.5184 213.753 77.3075 194.76 100.448 183.271C123.393 171.878 150.491 167.944 168.645 167.82C176.21 178.668 184.911 193.304 194.957 213.721C180.388 219.319 159.34 231.97 143.226 251.857C127.034 271.84 115.818 299.145 121.201 333.887C121.285 334.432 121.797 334.806 122.342 334.721C122.888 334.636 123.262 334.126 123.177 333.58C117.895 299.484 128.883 272.734 144.78 253.116C160.697 233.471 181.529 220.991 195.824 215.529C195.83 215.527 195.835 215.524 195.841 215.522C201.407 226.934 207.381 240.111 213.797 255.385C224.607 281.118 235.617 303.071 246.018 321.213C240.084 328.686 228.928 349.946 231.164 375.93C231.211 376.48 231.696 376.888 232.246 376.841C232.796 376.794 233.204 376.309 233.157 375.759C231.034 351.09 241.301 330.776 247.098 323.086C252.848 333.01 258.401 341.759 263.622 349.327C263.623 349.349 263.624 349.37 263.626 349.391C263.671 349.754 263.905 350.047 264.217 350.184C265.61 352.189 266.977 354.112 268.318 355.947C276.246 366.791 283.251 374.695 288.784 379.61C291.545 382.062 293.982 383.807 296.013 384.791C297.971 385.739 299.877 386.134 301.306 385.274C301.779 384.989 301.932 384.374 301.648 383.901C301.363 383.428 300.748 383.275 300.275 383.56C299.787 383.854 298.752 383.895 296.884 382.991C295.089 382.121 292.812 380.511 290.113 378.114C284.725 373.328 277.814 365.548 269.932 354.766C268.824 353.25 267.699 351.674 266.554 350.04L304.458 345.397C305.006 345.33 305.397 344.83 305.33 344.282C305.263 343.735 304.763 343.345 304.216 343.412L265.262 348.183C250.401 326.639 232.778 295.409 215.641 254.611C212.818 247.891 210.079 241.574 207.423 235.632C229.126 237.561 261.45 241.378 289.765 246.737C304.25 249.479 317.656 252.618 328.044 256.103C333.24 257.847 337.652 259.668 341.057 261.554C344.487 263.454 346.779 265.358 347.883 267.215C348.165 267.69 348.78 267.845 349.254 267.563C349.729 267.281 349.885 266.668 349.603 266.193C348.224 263.874 345.552 261.757 342.025 259.804C338.474 257.837 333.936 255.971 328.68 254.207C318.166 250.679 304.658 247.52 290.137 244.772C261.248 239.304 228.225 235.44 206.482 233.541C194.582 207.13 184.337 188.288 175.475 174.451C192.347 169.428 220.12 164.018 250.002 163.728C280.581 163.431 313.243 168.496 338.702 184.692C339.168 184.988 339.786 184.85 340.082 184.385C340.378 183.919 340.241 183.301 339.775 183.004C313.85 166.512 280.741 161.429 249.983 161.728C219.567 162.023 191.325 167.584 174.345 172.702C172.851 170.41 171.399 168.26 169.983 166.241C165.185 159.397 161.332 154.676 157.988 151.101C163.736 136.868 173.789 115.945 185.44 98.9989C191.314 90.4546 197.562 82.9682 203.833 77.856C210.122 72.729 216.282 70.1109 222.033 70.9701C246.678 74.6524 259.242 75.5079 262.496 75.4682C263.048 75.4614 263.491 75.0078 263.484 74.4556C263.477 73.9037 263.024 73.4617 262.472 73.4683C259.394 73.5059 246.971 72.6748 222.327 68.9928Z" fill="#4E6422"/>
</svg>
