<svg width="387" height="427" viewBox="0 0 387 427" fill="none" xmlns="http://www.w3.org/2000/svg">
<rect width="386.453" height="426.589" transform="matrix(-1 0 0 1 386.453 0)" fill="white"/>
<path d="M164.038 23.4592C225.845 34.0389 223.2 85.4061 214.152 109.767C218.607 133.154 235.497 114.871 243.385 102.807C255.682 86.7981 292.525 64.8035 341.526 104.895C402.776 155.009 352.662 228.788 335.261 250.365C317.861 271.942 310.204 272.638 306.028 237.837C302.687 209.996 283.755 194.219 274.707 189.811C261.714 189.347 241.297 194.265 263.57 217.652C291.411 246.885 298.372 280.295 306.724 302.568C315.076 324.841 277.491 342.937 253.826 355.466C230.161 367.995 237.817 331.105 244.777 310.224C251.738 289.343 241.993 255.934 232.945 239.925C223.896 223.916 192.575 206.515 214.152 250.365C235.729 294.215 224.592 296.999 233.641 335.281C242.689 373.563 224.592 384.699 186.311 410.452C155.685 431.055 165.198 383.771 173.782 357.554C177.494 327.857 179.35 272.638 157.077 289.343C129.236 310.224 144.549 340.849 143.853 377.739C143.296 407.251 124.132 409.525 114.619 406.972C103.483 401.868 79.4003 393.469 72.1616 400.708C63.1132 409.757 57.5449 409.757 58.937 387.484C60.329 365.211 52.6727 367.299 26.9197 319.273C6.31723 280.852 37.8242 264.286 56.153 260.806C75.4098 255.006 116.429 238.672 126.452 219.74C138.981 196.075 70.7696 218.348 49.8887 246.189C33.1839 268.462 23.9035 255.006 21.3514 245.493C19.7273 235.517 16.4792 211.109 16.4792 193.291C16.4791 171.018 112.531 165.45 126.452 162.666C140.373 159.881 142.461 146.657 126.452 140.393C110.443 134.128 91.6505 137.608 63.1132 146.657C40.2834 153.896 42.0003 138.072 45.7125 129.256C59.4011 89.5823 102.23 12.8796 164.038 23.4592Z" fill="#66832C"/>
<path d="M319.646 159.239C317.456 152.966 311.647 148.424 303.976 145.156C296.284 141.88 286.537 139.806 276.153 138.574C255.938 136.176 233.087 136.947 217.72 138.438C217.942 137.74 218.147 137.065 218.337 136.408C219.876 131.088 220.466 126.897 221.535 122.303C221.661 121.765 221.325 121.228 220.788 121.102C220.25 120.978 219.713 121.312 219.587 121.85C218.465 126.671 217.944 130.57 216.415 135.852C214.993 140.766 212.711 146.806 208.296 155.57C199.484 139.484 183.494 117.797 162.941 102.945C141.637 87.5504 115.3 79.4231 87.0201 92.7145C86.5205 92.9495 86.3055 93.5455 86.5401 94.0452C86.7751 94.5447 87.3711 94.7598 87.8708 94.5251C115.273 81.6459 140.829 89.4341 161.77 104.566C182.533 119.57 198.63 141.722 207.19 157.732C201.11 169.477 192.208 183.991 178.813 202.386C167.077 192.098 146.082 179.358 120.981 174.354C95.757 169.325 66.3702 172.109 38.1275 193.045C37.684 193.374 37.5915 194 37.9203 194.444C38.2493 194.887 38.8752 194.98 39.3187 194.652C67.0366 174.105 95.8266 171.378 120.59 176.315C145.385 181.258 166.128 193.885 177.617 203.995C177.621 203.999 177.626 204.003 177.631 204.006C170.122 214.245 161.24 225.667 150.709 238.455C132.965 260.001 118.661 279.964 107.447 297.615C98.0703 295.841 74.0613 295.865 52.1046 309.939C51.6398 310.237 51.5045 310.855 51.8021 311.32C52.1002 311.785 52.7189 311.921 53.1839 311.623C74.0288 298.261 96.7868 297.892 106.291 299.442C100.185 309.151 95.0264 318.138 90.7586 326.282C90.7404 326.293 90.7218 326.304 90.7041 326.316C90.4035 326.524 90.2538 326.868 90.2773 327.208C89.1512 329.374 88.0861 331.479 87.0864 333.52C81.1793 345.585 77.4447 355.463 75.6705 362.648C74.785 366.234 74.3748 369.202 74.4496 371.458C74.5218 373.632 75.0599 375.503 76.4867 376.368C76.9587 376.654 77.5737 376.503 77.8601 376.032C78.1463 375.559 77.9954 374.944 77.5232 374.657C77.0361 374.362 76.5175 373.466 76.4487 371.391C76.3827 369.398 76.7476 366.633 77.6129 363.128C79.3405 356.132 83.0096 346.394 88.8824 334.399C89.7083 332.713 90.5796 330.983 91.4927 329.209L113.247 360.595C113.561 361.048 114.185 361.162 114.639 360.847C115.092 360.533 115.205 359.91 114.891 359.456L92.5354 327.201C104.685 304.019 124.121 273.886 152.252 239.726C156.886 234.1 161.202 228.735 165.224 223.618C173.619 243.725 185.288 274.11 193.726 301.665C198.042 315.761 201.504 329.087 203.255 339.904C204.13 345.313 204.572 350.066 204.488 353.957C204.403 357.878 203.785 360.793 202.656 362.635C202.367 363.105 202.515 363.721 202.986 364.01C203.456 364.299 204.072 364.151 204.36 363.681C205.771 361.381 206.401 358.03 206.488 354C206.576 349.941 206.115 345.056 205.229 339.584C203.457 328.636 199.965 315.21 195.638 301.079C187.03 272.966 175.077 241.94 166.637 221.812C184.472 198.986 196.379 181.148 204.501 166.863C216.8 179.458 234.516 201.52 248.683 227.832C263.18 254.758 273.902 286.022 271.419 316.094C271.374 316.644 271.783 317.127 272.333 317.173C272.883 317.218 273.366 316.808 273.412 316.258C275.94 285.636 265.027 253.967 250.445 226.884C236.025 200.102 217.957 177.695 205.523 165.049C206.856 162.66 208.082 160.374 209.21 158.181C213.034 150.748 215.419 145.141 217.026 140.517C232.299 138.979 255.496 138.137 275.918 140.56C286.214 141.781 295.749 143.826 303.192 146.997C310.658 150.176 315.842 154.409 317.759 159.899C325.972 183.425 331.063 194.943 332.613 197.805C332.876 198.29 333.484 198.471 333.97 198.208C334.455 197.945 334.635 197.338 334.372 196.853C332.906 194.146 327.859 182.764 319.646 159.239Z" fill="#4E6422"/>
</svg>
