<svg width="462" height="186" viewBox="0 0 462 186" fill="none" xmlns="http://www.w3.org/2000/svg">
<path d="M162.815 0.575998H169.823V67.776H162.815V0.575998ZM120.767 67.776H113.663V0.575998H120.767V67.776ZM163.487 36.768H119.999V30.528H163.487V36.768Z" fill="black"/>
<path d="M221.133 68.352C216.077 68.352 211.373 67.52 207.021 65.856C202.733 64.128 198.989 61.728 195.789 58.656C192.653 55.52 190.189 51.904 188.397 47.808C186.669 43.648 185.805 39.104 185.805 34.176C185.805 29.248 186.669 24.736 188.397 20.64C190.189 16.48 192.653 12.864 195.789 9.792C198.989 6.656 202.733 4.256 207.021 2.592C211.309 0.864 216.013 0 221.133 0C226.189 0 230.861 0.864 235.149 2.592C239.437 4.256 243.149 6.624 246.285 9.696C249.485 12.768 251.949 16.384 253.677 20.544C255.469 24.704 256.365 29.248 256.365 34.176C256.365 39.104 255.469 43.648 253.677 47.808C251.949 51.968 249.485 55.584 246.285 58.656C243.149 61.728 239.437 64.128 235.149 65.856C230.861 67.52 226.189 68.352 221.133 68.352ZM221.133 62.016C225.165 62.016 228.877 61.344 232.269 60C235.725 58.592 238.701 56.64 241.197 54.144C243.757 51.584 245.741 48.64 247.149 45.312C248.557 41.92 249.261 38.208 249.261 34.176C249.261 30.144 248.557 26.464 247.149 23.136C245.741 19.744 243.757 16.8 241.197 14.304C238.701 11.744 235.725 9.792 232.269 8.448C228.877 7.04 225.165 6.336 221.133 6.336C217.101 6.336 213.357 7.04 209.901 8.448C206.445 9.792 203.437 11.744 200.877 14.304C198.381 16.8 196.397 19.744 194.925 23.136C193.517 26.464 192.813 30.144 192.813 34.176C192.813 38.144 193.517 41.824 194.925 45.216C196.397 48.608 198.381 51.584 200.877 54.144C203.437 56.64 206.445 58.592 209.901 60C213.357 61.344 217.101 62.016 221.133 62.016Z" fill="black"/>
<path d="M299.36 68.352C290.784 68.352 284.032 65.888 279.104 60.96C274.176 56.032 271.712 48.736 271.712 39.072V0.575998H278.816V38.784C278.816 46.72 280.608 52.576 284.192 56.352C287.776 60.128 292.832 62.016 299.36 62.016C305.952 62.016 311.04 60.128 314.624 56.352C318.208 52.576 320 46.72 320 38.784V0.575998H326.912V39.072C326.912 48.736 324.448 56.032 319.52 60.96C314.656 65.888 307.936 68.352 299.36 68.352Z" fill="black"/>
<path d="M366.848 68.352C361.856 68.352 357.056 67.552 352.448 65.952C347.904 64.288 344.384 62.176 341.888 59.616L344.672 54.144C347.04 56.448 350.208 58.4 354.176 60C358.208 61.536 362.432 62.304 366.848 62.304C371.072 62.304 374.496 61.792 377.12 60.768C379.808 59.68 381.76 58.24 382.976 56.448C384.256 54.656 384.896 52.672 384.896 50.496C384.896 47.872 384.128 45.76 382.592 44.16C381.12 42.56 379.168 41.312 376.736 40.416C374.304 39.456 371.616 38.624 368.672 37.92C365.728 37.216 362.784 36.48 359.84 35.712C356.896 34.88 354.176 33.792 351.68 32.448C349.248 31.104 347.264 29.344 345.728 27.168C344.256 24.928 343.52 22.016 343.52 18.432C343.52 15.104 344.384 12.064 346.112 9.312C347.904 6.496 350.624 4.256 354.272 2.592C357.92 0.864 362.592 0 368.288 0C372.064 0 375.808 0.544001 379.52 1.632C383.232 2.656 386.432 4.096 389.12 5.952L386.72 11.616C383.84 9.696 380.768 8.288 377.504 7.392C374.304 6.496 371.2 6.048 368.192 6.048C364.16 6.048 360.832 6.592 358.208 7.68C355.584 8.768 353.632 10.24 352.352 12.096C351.136 13.888 350.528 15.936 350.528 18.24C350.528 20.864 351.264 22.976 352.736 24.576C354.272 26.176 356.256 27.424 358.688 28.32C361.184 29.216 363.904 30.016 366.848 30.72C369.792 31.424 372.704 32.192 375.584 33.024C378.528 33.856 381.216 34.944 383.648 36.288C386.144 37.568 388.128 39.296 389.6 41.472C391.136 43.648 391.904 46.496 391.904 50.016C391.904 53.28 391.008 56.32 389.216 59.136C387.424 61.888 384.672 64.128 380.96 65.856C377.312 67.52 372.608 68.352 366.848 68.352Z" fill="black"/>
<path d="M413.718 30.624H449.238V36.672H413.718V30.624ZM414.486 61.632H454.902V67.776H407.382V0.575998H453.462V6.72H414.486V61.632Z" fill="black"/>
<path d="M6.27271 184.776V117.576H12.1287L42.8487 169.992H39.7767L70.2087 117.576H76.0647V184.776H69.2487V128.232H70.8807L42.8487 176.232H39.4887L11.2647 128.232H13.0887V184.776H6.27271Z" fill="black"/>
<path d="M97.9602 184.776V117.576H105.064V184.776H97.9602Z" fill="black"/>
<path d="M126.929 184.776V117.576H132.785L179.153 175.944H176.081V117.576H183.089V184.776H177.233L130.961 126.408H134.033V184.776H126.929Z" fill="black"/>
<path d="M205.023 184.776V117.576H232.383C239.551 117.576 245.823 119.016 251.199 121.896C256.639 124.712 260.863 128.648 263.871 133.704C266.879 138.76 268.383 144.584 268.383 151.176C268.383 157.768 266.879 163.592 263.871 168.648C260.863 173.704 256.639 177.672 251.199 180.552C245.823 183.368 239.551 184.776 232.383 184.776H205.023ZM212.127 178.632H231.999C237.951 178.632 243.103 177.48 247.455 175.176C251.871 172.808 255.295 169.576 257.727 165.48C260.159 161.32 261.375 156.552 261.375 151.176C261.375 145.736 260.159 140.968 257.727 136.872C255.295 132.776 251.871 129.576 247.455 127.272C243.103 124.904 237.951 123.72 231.999 123.72H212.127V178.632Z" fill="black"/>
<path d="M290.671 147.624H326.191V153.672H290.671V147.624ZM291.439 178.632H331.855V184.776H284.335V117.576H330.415V123.72H291.439V178.632Z" fill="black"/>
<path d="M348.554 184.776V117.576H373.706C379.402 117.576 384.298 118.504 388.394 120.36C392.49 122.152 395.626 124.776 397.802 128.232C400.042 131.624 401.162 135.752 401.162 140.616C401.162 145.352 400.042 149.448 397.802 152.904C395.626 156.296 392.49 158.92 388.394 160.776C384.298 162.568 379.402 163.464 373.706 163.464H352.49L355.658 160.2V184.776H348.554ZM394.442 184.776L377.162 160.392H384.842L402.218 184.776H394.442ZM355.658 160.776L352.49 157.416H373.514C380.234 157.416 385.322 155.944 388.778 153C392.298 150.056 394.058 145.928 394.058 140.616C394.058 135.24 392.298 131.08 388.778 128.136C385.322 125.192 380.234 123.72 373.514 123.72H352.49L355.658 120.36V160.776Z" fill="black"/>
<path d="M436.457 185.352C431.465 185.352 426.665 184.552 422.057 182.952C417.513 181.288 413.993 179.176 411.497 176.616L414.281 171.144C416.649 173.448 419.817 175.4 423.785 177C427.817 178.536 432.041 179.304 436.457 179.304C440.681 179.304 444.105 178.792 446.729 177.768C449.417 176.68 451.369 175.24 452.585 173.448C453.865 171.656 454.505 169.672 454.505 167.496C454.505 164.872 453.737 162.76 452.201 161.16C450.729 159.56 448.777 158.312 446.345 157.416C443.913 156.456 441.225 155.624 438.281 154.92C435.337 154.216 432.393 153.48 429.449 152.712C426.505 151.88 423.785 150.792 421.289 149.448C418.857 148.104 416.873 146.344 415.337 144.168C413.865 141.928 413.129 139.016 413.129 135.432C413.129 132.104 413.993 129.064 415.721 126.312C417.513 123.496 420.233 121.256 423.881 119.592C427.529 117.864 432.201 117 437.897 117C441.673 117 445.417 117.544 449.129 118.632C452.841 119.656 456.041 121.096 458.729 122.952L456.329 128.616C453.449 126.696 450.377 125.288 447.113 124.392C443.913 123.496 440.809 123.048 437.801 123.048C433.769 123.048 430.441 123.592 427.817 124.68C425.193 125.768 423.241 127.24 421.961 129.096C420.745 130.888 420.137 132.936 420.137 135.24C420.137 137.864 420.873 139.976 422.345 141.576C423.881 143.176 425.865 144.424 428.297 145.32C430.793 146.216 433.513 147.016 436.457 147.72C439.401 148.424 442.313 149.192 445.193 150.024C448.137 150.856 450.825 151.944 453.257 153.288C455.753 154.568 457.737 156.296 459.209 158.472C460.745 160.648 461.513 163.496 461.513 167.016C461.513 170.28 460.617 173.32 458.825 176.136C457.033 178.888 454.281 181.128 450.569 182.856C446.921 184.52 442.217 185.352 436.457 185.352Z" fill="black"/>
<path d="M9.84 46.776V21.336H0V18.776H22.64V21.336H12.8V46.776H9.84Z" fill="black"/>
<path d="M47.8488 18.776H50.7688V46.776H47.8488V18.776ZM30.3288 46.776H27.3687V18.776H30.3288V46.776ZM48.1287 33.856H30.0088V31.256H48.1287V33.856Z" fill="black"/>
<path d="M62.5478 31.296H77.3478V33.816H62.5478V31.296ZM62.8678 44.216H79.7078V46.776H59.9078V18.776H79.1078V21.336H62.8678V44.216Z" fill="black"/>
<path d="M83.73 68.8097V66.2784H0V68.8097H83.73Z" fill="black"/>
</svg>
