<svg width="478" height="503" viewBox="0 0 478 503" fill="none" xmlns="http://www.w3.org/2000/svg">
<path d="M157.311 -6.87628e-06C244.192 -3.07861e-06 314.622 70.4305 314.622 157.311L314.622 447.433L0.000285618 447.433L0.0002983 157.311C0.000302097 70.4304 70.4308 -1.06739e-05 157.311 -6.87628e-06V-6.87628e-06Z" fill="#A7C6F6"/>
<path d="M453.979 450.86C453.979 474.859 352.353 502.771 226.99 502.771C101.627 502.771 0.000488281 474.859 0.000488281 450.86C0.000488281 426.86 101.627 407.404 226.99 407.404C352.353 407.404 453.979 426.86 453.979 450.86Z" fill="#7FA5DE"/>
<ellipse cx="234.324" cy="458.747" rx="75.75" ry="14.5017" fill="#FFBF4E"/>
<ellipse cx="234.324" cy="281.075" rx="103.259" ry="22.6375" fill="#4A1C1C"/>
<rect x="109.186" y="266.208" width="250.278" height="46.6416" fill="#F8D392"/>
<path d="M160.537 457.13L121.614 311.867H347.037L308.114 457.13H160.537Z" fill="#FFDFA7"/>
<ellipse cx="234.326" cy="457.13" rx="73.75" ry="14.1188" fill="#FFDFA7"/>
<ellipse cx="234.325" cy="312.85" rx="125.139" ry="26.3676" fill="#F8D392"/>
<ellipse cx="234.325" cy="266.749" rx="125.139" ry="26.3676" fill="#F0C272"/>
<path d="M209.6 173.112L238.315 305.463" stroke="#2B3C0A" stroke-width="2"/>
<path d="M212.655 183.728C195.752 193.165 168.299 199.44 193.715 149.048C219.58 144.329 259.578 144.66 212.655 183.728Z" fill="#577221"/>
<path d="M164.999 146.217C179.865 170.281 214.976 234.97 236.482 301.217" stroke="#2B3C0A" stroke-width="2"/>
<path d="M112.513 144.302C120.456 150.671 162.002 143.594 165.667 144.302C182.775 119.388 184.2 99.4767 182.774 92.635C177.072 95.9379 161.391 105.233 144.283 115.991C122.9 129.439 104.57 137.932 112.513 144.302Z" fill="#4E6422"/>
<path d="M73.9642 292.016C79.3408 235.961 107.975 247.427 121.62 260.167C131.322 302.873 84.4568 347.718 59.2617 365.228C59.0562 365.421 58.8651 365.55 58.6899 365.623C58.8793 365.493 59.0699 365.361 59.2617 365.228C62.4009 362.281 68.9181 344.626 73.9642 292.016Z" fill="#4E6422"/>
<path d="M113.677 264.413C127.526 257.571 160.966 249.692 183.939 272.906C206.911 296.121 220.393 311.833 224.263 316.787" stroke="#2B3C0A" stroke-width="2"/>
<path d="M400.222 216.286C373.34 213.455 310.532 213.455 274.362 236.103" stroke="#2B3C0A" stroke-width="2"/>
<path d="M298.802 185.852C289.026 187.739 265.198 197.884 248.091 223.363C230.984 248.843 223.449 289.185 221.819 306.171" stroke="#2B3C0A" stroke-width="2"/>
<path d="M396.555 212.039C396.759 199.299 403.398 178.349 428.326 196.468C459.485 219.117 469.261 234.687 470.483 250.966C471.195 260.455 473.681 265.51 475.765 267.829C476.7 268.321 477.381 268.865 477.815 269.368C477.262 269.176 476.541 268.692 475.765 267.829C472.307 266.009 465.371 264.911 454.598 269.368C437.49 276.445 411.83 267.244 396.555 250.966C381.281 234.687 364.785 215.578 396.555 212.039Z" fill="#4E6422"/>
<path d="M309.798 159.665C283.404 154.569 286.174 180.662 293.302 191.514C301.244 191.514 329.349 196.468 338.514 200.007C347.678 203.546 379.449 185.852 369.673 180.898C359.898 175.943 342.79 166.034 309.798 159.665Z" fill="#4E6422"/>
<path d="M113.067 210.623C132.822 206.613 177.097 211.473 196.159 262.998" stroke="#2B3C0A" stroke-width="2"/>
<path d="M114.899 226.194C129.563 214.87 117.75 203.546 110.012 199.299C96.8145 199.299 58.079 262.998 40.3608 294.847C42.3974 294.847 51.3583 293.714 70.9094 289.185C95.3482 283.523 96.5701 240.349 114.899 226.194Z" fill="#314210"/>
<path d="M108.178 186.56C126.304 183.021 170.253 194.911 201.046 270.783" stroke="#2B3C0A" stroke-width="2"/>
<path d="M78.2409 206.377C97.792 158.249 110.011 179.482 110.622 183.021C110.622 216.551 72.6183 243.9 51.9521 254.319C51.1854 254.901 50.5792 255.176 50.1362 255.212C50.7248 254.93 51.3306 254.632 51.9521 254.319C56.12 251.153 65.0301 238.897 78.2409 206.377Z" fill="#4E6422"/>
<path d="M264.587 154.71L245.647 282.107" stroke="#2B3C0A" stroke-width="2"/>
<path d="M230.373 147.632C221.575 154.993 248.295 164.383 262.754 168.157C295.136 174.527 334.237 117.907 304.3 115.075C280.35 112.811 272.326 131.59 271.307 141.263C261.328 140.319 239.171 140.272 230.373 147.632Z" fill="#4E6422"/>
<path d="M334.849 227.609C305.033 200.431 293.099 210.623 290.859 219.116L313.465 244.596C333.016 250.258 364.664 254.787 334.849 227.609Z" fill="#4E6422"/>
<path d="M286.885 284.182C257.07 257.004 245.135 267.196 242.895 275.689L265.501 301.168C285.052 306.83 316.7 311.36 286.885 284.182Z" fill="#4E6422"/>
<path d="M179.276 252.597C178.58 208.985 207.226 230.888 221.636 247.29C249.206 242.09 256.989 266.266 257.025 288.653C257.053 306.563 219.188 324.48 200.252 331.199C193.549 323.17 179.972 296.208 179.276 252.597Z" fill="#384915"/>
<path d="M242.487 205.287C244.065 176.526 270.107 203.29 282.931 220.267C308.577 203.041 337.186 228.506 340.145 246.482C343.104 264.457 317.456 298.911 291.809 280.935C266.161 262.959 240.514 241.239 242.487 205.287Z" fill="#2F3F0F"/>
<circle cx="260.895" cy="54.0393" r="18" fill="#FDBF31"/>
<path d="M366.068 90.1705H232.159C232.159 57.7308 255.42 60.3083 267.051 65.652C270.194 59.9939 281.95 48.6777 303.828 48.6777C325.706 48.6777 334.319 65.0234 335.891 73.1962C349.47 68.6698 361.667 82.6264 366.068 90.1705Z" fill="white"/>
</svg>
