<svg width="532" height="479" viewBox="0 0 532 479" fill="none" xmlns="http://www.w3.org/2000/svg">
<rect width="532" height="479" fill="white"/>
<path d="M281 21C348.379 21 403 75.6213 403 143L403 368L159 368L159 143C159 75.6213 213.621 21 281 21V21Z" fill="#C5B8D8"/>
<path d="M175.905 383.66C167.333 359.747 189.613 343.827 204.406 337.66L218.406 352.66L212.25 361.5C193.25 382.5 267.406 385.16 306.906 388.66C346.406 392.16 355.906 393.66 353.906 407.756C352.5 417.66 334.239 416.057 324.406 415.66C280.198 414.16 185.406 410.16 175.905 383.66Z" fill="#FFD3C2"/>
<path d="M299.346 388.017C301.99 388.235 304.52 388.449 306.906 388.66C346.406 392.16 355.906 393.66 353.906 407.756C352.5 417.66 334.239 416.057 324.406 415.66C306.88 415.066 281.405 414.076 256.446 411.449C257.509 402.041 279.683 399.66 290.906 399.66C290.906 393.265 295.593 389.64 299.346 388.017Z" fill="#E95218"/>
<path d="M297.683 101.293C296.825 118.445 308.76 131.309 314.835 135.597C327.86 145.705 363.61 151.33 387.86 138.33C392.948 135.602 404.752 124.83 405.955 105.581C407.027 88.4285 399.957 75.5645 395.235 66.9884L371.651 62.7004H344.851L314.835 66.9884C309.475 71.2765 298.54 84.1405 297.683 101.293Z" fill="#FFD3C2"/>
<path d="M347.163 358.018C347.163 352.045 336.579 283.923 331.287 250.609L386.287 231.08L371.545 348.254C386.06 348.254 385.531 362.805 383.452 370.08L347.163 368.357V358.018Z" fill="#FFD3C2"/>
<path d="M274.093 182.213C281.91 178.066 308.096 156.063 314.61 146.079H384.61C390.77 169.118 394.162 210.43 386.173 232.898L330.421 252.481L340.192 353.85C358.125 353.85 358.01 368.441 355.711 375.737C343.64 375.737 319.155 375.391 317.776 374.009C316.396 372.627 306.741 332.626 300.61 314.579C300.61 333.471 276.584 347.515 266.046 350.394C296.854 350.394 306.089 367.289 306.855 375.737C286.163 377.465 217.191 372.329 209.144 367.673C201.097 363.018 199.373 348.666 199.373 281.855C199.373 215.043 264.322 187.397 274.093 182.213Z" fill="#FFD3C2"/>
<path d="M257.682 237.83C273.656 241.875 305.143 260.137 303.295 300.82C301.447 341.503 270.577 352.445 255.373 352.83" stroke="#FEBFA7" stroke-width="3" stroke-linecap="round"/>
<path d="M358.787 62.7004C348.624 112.113 322.124 96.3631 300.899 118.445C289.75 95.2893 305.544 74.4925 314.835 66.9884L344.851 62.7004H358.787Z" fill="#FEBFA7"/>
<path d="M322.339 42.3325C319.766 44.9053 316.264 59.8418 314.835 66.9885L344.851 62.7005C341.635 51.9805 325.555 39.1164 322.339 42.3325Z" fill="#FFD3C2"/>
<path d="M395.235 43.4044C382.371 44.262 373.438 58.0551 370.579 64.8445C378.083 67.7031 393.52 72.1341 395.235 66.9885C396.95 61.8429 395.95 49.1218 395.235 43.4044Z" fill="#E95218"/>
<path d="M403.874 87.241C378.374 84.3632 367.657 71.125 365.219 62.6778C378.8 61.7392 386.81 65.1807 394.471 66.4321C398.65 69.4356 402.829 82.5481 403.874 87.241Z" fill="#E95218"/>
<path d="M387.522 138.205C365.985 147.193 325.365 142.943 314.835 135.58L314.11 146.83C317.535 149.142 330.4 154.539 351.564 156.183C372.728 157.826 384.354 153.957 387.522 151.816V138.205Z" fill="#E95218"/>
<circle cx="352.976" cy="161.191" r="9.63174" fill="#FF713A"/>
<path d="M391.581 49.051C383.631 49.001 376.727 59.4885 374.269 64.7385C376.269 64.7385 386.644 66.2385 391.581 66.9885C393.231 60.5385 392.269 52.3426 391.581 49.051Z" fill="#FEBFA7"/>
<path d="M327.922 47.7971C323.738 45.3809 321.887 58.4154 321.485 65.2346C327.335 65.4847 336.756 63.5471 340.735 62.5471C340.297 59.8596 333.154 50.8174 327.922 47.7971Z" fill="#FEBFA7"/>
<path d="M367.229 104.302H354.229C353.875 106.885 354.617 112.052 360.417 112.052C366.217 112.052 367.375 106.885 367.229 104.302Z" fill="black"/>
<path d="M360.979 121.281L360.953 121.282C361.501 121.845 362.363 122.438 363.381 122.626C364.505 122.833 365.897 122.559 367.368 121.018L368.091 121.71C366.412 123.468 364.689 123.883 363.2 123.609C362.024 123.393 361.043 122.756 360.381 122.122C359.033 123.672 357.562 124.098 356.218 123.888C354.802 123.666 353.629 122.758 352.976 122.004L353.732 121.349C354.288 121.991 355.264 122.727 356.372 122.9C357.425 123.065 358.699 122.738 359.954 121.064L359.968 121.045L359.604 112.072L360.604 112.031L360.979 121.281Z" fill="black"/>
<path d="M345.091 96.8034C344.442 99.2267 337.08 102.14 329.478 100.124C321.875 98.1077 316.511 91.6913 317.216 89.0602C318.073 85.8624 325.572 84.1667 333.174 86.1826C340.777 88.1986 345.741 94.3801 345.091 96.8034Z" fill="#FDBF31"/>
<path d="M329.05 85.4358C330.395 85.5696 331.783 85.8138 333.175 86.1829C334.458 86.5231 335.665 86.9842 336.783 87.5237C338.152 88.9334 338.995 90.8551 338.995 92.9749C338.995 96.8316 336.206 100.034 332.535 100.682C331.531 100.576 330.507 100.396 329.478 100.123C328.241 99.7954 327.065 99.3499 325.963 98.8245C324.352 97.3904 323.336 95.3015 323.336 92.9749C323.336 89.384 325.754 86.3589 329.05 85.4358Z" fill="black"/>
<path d="M328.768 91.959L323.535 91.2217C323.769 90.1998 324.203 89.2548 324.793 88.4287L328.768 91.959Z" fill="#FBFDFA"/>
<path d="M368.737 98.0539C369.263 100.507 376.47 103.786 384.164 102.155C391.858 100.524 397.538 94.385 396.966 91.7218C396.271 88.4849 388.866 86.4144 381.172 88.0456C373.478 89.6769 368.21 95.601 368.737 98.0539Z" fill="#FDBF31"/>
<path d="M384.376 87.5724C387.794 88.4127 390.331 91.4971 390.331 95.1749C390.331 97.5292 389.29 99.6391 387.645 101.074C386.546 101.526 385.38 101.897 384.164 102.155C382.744 102.456 381.341 102.588 379.993 102.591C376.899 101.545 374.672 98.6216 374.672 95.1749C374.672 92.81 375.72 90.6906 377.378 89.255C378.557 88.7488 379.827 88.3312 381.173 88.046C382.252 87.8172 383.325 87.6625 384.376 87.5724Z" fill="black"/>
<path d="M380.044 94.9991L374.728 94.2491C374.858 93.1432 375.217 92.108 375.759 91.1925L380.044 94.9991Z" fill="#FCFDFB"/>
<path d="M258.67 217.564C260.754 222.064 262.67 229.414 253.67 222.814C245.41 216.757 239.468 209.251 237 205.481C241.287 201.876 245.579 198.721 249.659 195.984L258.67 217.564ZM276.682 180.641C277.26 189.796 278.936 203.35 282.708 210.796C287.353 219.967 285.61 224.276 284.158 225.284C276.84 221.401 262.308 208.775 261.328 188.841C267.338 185.482 271.992 183.328 274.093 182.213C274.811 181.832 275.684 181.3 276.682 180.641ZM298.893 162.727C304.135 176.592 312.55 202.129 308.312 204.441C303.912 206.841 298.479 197.775 296.312 192.941L287.267 172.699C291.021 169.66 295.061 166.206 298.893 162.727Z" fill="#FEBFA7"/>
<path d="M77.4064 305.557C93.8952 293.888 104.993 306.191 108.482 313.801C114.823 318.114 114.506 310.102 113.555 305.557C112.709 299.109 116.092 285.707 136.386 283.677C161.753 281.141 167.144 309.362 168.095 318.241C169.046 327.119 167.461 329.022 158.582 322.046C151.479 316.465 143.573 317.184 140.508 318.241C137.443 321.094 133.912 326.865 144.313 327.119C157.314 327.436 166.509 333.461 173.485 336.632C180.461 339.803 176.022 352.487 173.485 360.731C170.949 368.975 164.29 358.828 161.119 352.487C157.948 346.145 148.118 340.754 142.41 339.169C136.703 337.583 125.604 340.754 140.508 345.828C155.411 350.901 153.509 354.072 164.29 360.731C175.071 367.39 173.485 374.049 170.632 388.635C168.348 400.304 159.745 387.367 155.728 379.439C149.809 371.829 137.654 358.828 136.386 367.707C134.8 378.805 145.264 382.293 153.509 390.855C160.104 397.704 156.257 402.587 153.509 404.173C149.809 405.547 142.41 409.119 142.41 412.417C142.41 416.539 141.142 417.808 136.386 412.417C131.629 407.026 130.361 409.246 113.555 404.173C100.11 400.114 103.514 389.164 106.896 384.196C109.961 378.488 115.584 365.424 113.555 358.828C111.018 350.584 100.554 371.195 102.14 382.293C103.408 391.172 98.2289 390.22 95.4807 388.635C92.8383 386.732 86.5387 381.913 82.4799 377.854C77.4064 372.78 98.0175 349.633 100.554 345.828C103.091 342.022 100.554 338.534 95.4807 340.754C90.4072 342.974 86.9192 348.047 82.4799 356.609C78.9285 363.458 75.7153 359.463 74.5526 356.609C68.6336 344.453 60.9176 317.226 77.4064 305.557Z" fill="#577221"/>
<path d="M144.075 300.43C141.893 299.378 139.312 299.742 136.75 300.773C134.167 301.813 131.416 303.604 128.747 305.708C123.883 309.54 119.14 314.529 115.944 318.32C115.126 316.879 114.311 315.768 113.594 314.617C113.302 314.148 112.685 314.005 112.216 314.297C111.748 314.588 111.604 315.205 111.896 315.673C112.781 317.095 113.496 318.015 114.344 319.554C115.005 320.754 115.715 322.29 116.522 324.575C110.816 323.073 102.771 322.016 95.1538 323.243C86.6447 324.613 78.5259 328.868 75.0004 338.646C74.8133 339.166 75.0827 339.738 75.602 339.925C76.1213 340.113 76.6937 339.844 76.8813 339.325C80.078 330.458 87.4053 326.516 95.4721 325.217C103.326 323.953 111.743 325.234 117.281 326.862C118.479 330.703 119.668 335.683 120.742 342.33C115.632 342.795 108.235 344.739 101.593 349.172C94.5702 353.861 88.3809 361.346 86.684 372.767C86.6032 373.313 86.9801 373.822 87.5258 373.904C88.0719 373.985 88.5811 373.607 88.6626 373.061C90.2634 362.287 96.0711 355.264 102.704 350.837C109.087 346.575 116.225 344.728 121.05 344.311C121.634 348.19 122.181 352.6 122.667 357.631C123.517 366.408 124.774 374.093 126.206 380.605C123.434 382.658 118.26 388.135 116.503 396.165C116.385 396.704 116.728 397.237 117.267 397.355C117.806 397.473 118.339 397.132 118.457 396.592C119.95 389.772 124.119 384.936 126.698 382.764C127.439 385.913 128.217 388.762 129.006 391.299C129.005 391.513 129.072 391.715 129.19 391.882C129.415 392.591 129.638 393.275 129.864 393.932C131.275 398.051 132.693 401.201 133.959 403.298C134.589 404.341 135.209 405.171 135.805 405.728C136.341 406.23 137.129 406.762 138.012 406.546C138.548 406.414 138.877 405.873 138.746 405.337C138.62 404.825 138.122 404.504 137.612 404.589C137.569 404.572 137.429 404.508 137.171 404.267C136.767 403.889 136.258 403.235 135.671 402.264C134.505 400.334 133.141 397.329 131.755 393.284C131.678 393.059 131.605 392.829 131.528 392.597L142.51 394.589C143.054 394.687 143.575 394.326 143.673 393.783C143.772 393.24 143.411 392.719 142.868 392.621L130.835 390.438C128.381 382.468 126.006 371.36 124.659 357.439C124.473 355.523 124.28 353.695 124.079 351.95C130.511 354.627 139.487 358.656 147.222 362.764C151.405 364.986 155.199 367.216 158.025 369.255C159.439 370.275 160.586 371.23 161.414 372.094C162.261 372.98 162.683 373.678 162.803 374.177C162.932 374.714 163.472 375.045 164.009 374.917C164.546 374.788 164.877 374.248 164.748 373.712C164.503 372.689 163.782 371.675 162.858 370.711C161.914 369.725 160.66 368.69 159.195 367.632C156.261 365.516 152.376 363.237 148.161 360.998C139.926 356.624 130.322 352.351 123.804 349.672C122.739 341.1 121.488 334.661 120.178 329.702C125.824 329.857 134.364 330.873 143.045 333.478C152.423 336.292 161.844 340.92 168.007 348.193C168.364 348.614 168.995 348.666 169.416 348.309C169.838 347.952 169.89 347.321 169.533 346.9C163.012 339.206 153.169 334.427 143.621 331.562C134.44 328.808 125.419 327.79 119.62 327.689C119.423 327.012 119.227 326.365 119.029 325.748C118.273 323.388 117.585 321.643 116.937 320.252C120.063 316.467 124.979 311.223 129.985 307.279C132.585 305.23 135.165 303.568 137.498 302.629C139.852 301.681 141.773 301.54 143.206 302.231C150.436 305.719 154.263 307.205 155.326 307.521C155.855 307.678 156.412 307.376 156.57 306.847C156.727 306.318 156.425 305.762 155.896 305.604C155.003 305.339 151.303 303.918 144.075 300.43Z" fill="#4E6422"/>
<path d="M210.719 174.625C191.348 149.34 168.881 162.675 160.068 172.503C148.501 176.03 152.726 164.114 156.285 157.715C160.574 148.402 161.751 126.638 132.141 114.088C95.1282 98.4018 73.8091 138.377 68.2233 151.302C62.6375 164.226 64.135 167.833 80.768 161.481C94.0745 156.4 105.644 161.181 109.765 164.207C113.046 169.938 115.662 180.28 99.8818 175.796C80.1563 170.192 63.4908 174.963 51.5027 176.474C39.5146 177.986 40.2661 199.162 40.2294 212.764C40.1927 226.365 54.9666 214.2 62.7082 206.134C70.4498 198.067 87.7736 194.548 97.1101 194.831C106.447 195.113 121.675 205.08 96.8601 205.748C72.0447 206.416 73.4263 212.081 54.0766 217.065C34.727 222.049 33.9994 232.818 31.4735 256.118C29.4528 274.757 48.4607 259.301 58.2172 249.242C70.6904 240.551 95.0758 226.66 92.8324 240.623C90.0282 258.077 72.6394 258.435 56.2196 267.47C43.0838 274.699 46.5931 283.852 49.9896 287.525C54.9176 291.325 64.3878 300.165 62.8452 305.131C60.9168 311.339 62.2335 313.842 71.9175 307.95C81.6015 302.057 82.4731 305.993 110.153 306.215C132.298 306.392 132.295 288.311 129.526 279.248C127.58 269.219 125.224 246.916 131.365 237.934C139.042 226.706 145.157 262.637 137.578 278.608C131.515 291.384 139.759 292.375 144.639 291.273C149.508 289.644 161.249 285.333 169.259 281.12C179.272 275.853 159.064 231.355 157.024 224.438C154.984 217.522 160.435 213.456 167.037 219.172C173.638 224.887 176.518 234.159 179.197 249.128C181.341 261.103 188.049 256.59 191.135 252.836C205.734 237.301 230.09 199.91 210.719 174.625Z" fill="#66832C"/>
<path d="M112.811 136.288C116.351 135.759 119.905 137.398 123.23 140.109C126.574 142.834 129.842 146.767 132.863 151.162C138.566 159.457 143.505 169.567 146.51 176.812C146.594 176.729 146.678 176.647 146.762 176.567C148.796 174.61 150.596 173.305 152.365 171.776C152.783 171.415 153.415 171.461 153.776 171.879C154.136 172.297 154.091 172.928 153.673 173.289C151.727 174.971 150.153 176.079 148.147 178.009C146.419 179.671 144.419 181.906 141.807 185.496C151.129 185.773 164.225 187.893 175.463 193.473C187.52 199.459 197.564 209.509 198.286 225.604C198.311 226.155 197.884 226.622 197.332 226.647C196.781 226.672 196.314 226.245 196.289 225.693C195.611 210.567 186.23 201.051 174.574 195.264C163.113 189.573 149.575 187.567 140.407 187.469C136.676 192.848 132.393 200.057 127.464 210.027C134.908 212.99 145.382 219.399 153.446 229.352C161.743 239.592 167.496 253.599 164.737 271.405C164.652 271.951 164.141 272.324 163.595 272.24C163.05 272.155 162.677 271.644 162.761 271.098C165.419 253.938 159.893 240.487 151.892 230.612C144.021 220.897 133.759 214.657 126.58 211.829C123.814 217.521 120.85 224.074 117.67 231.644C112.229 244.598 106.686 255.673 101.44 264.853C104.557 268.942 110.008 279.673 108.884 292.728C108.837 293.278 108.353 293.686 107.803 293.639C107.253 293.592 106.845 293.107 106.892 292.557C107.906 280.774 103.282 270.968 100.346 266.745C97.5784 271.487 94.9016 275.691 92.3766 279.357C92.3187 279.622 92.1586 279.843 91.9428 279.983C91.2557 280.97 90.5823 281.919 89.9196 282.825C85.8812 288.349 82.2988 292.394 79.4523 294.923C78.0345 296.182 76.7592 297.101 75.6694 297.629C74.6529 298.122 73.4695 298.429 72.5117 297.853C72.0387 297.568 71.8855 296.954 72.17 296.481C72.4548 296.008 73.0698 295.855 73.543 296.139C73.5618 296.15 73.8741 296.276 74.7969 295.83C75.6506 295.416 76.7687 294.631 78.1242 293.427C80.8252 291.028 84.3123 287.105 88.3046 281.645C88.7122 281.087 89.1225 280.512 89.54 279.923L71.1043 277.665C70.5564 277.598 70.1659 277.099 70.2326 276.551C70.2998 276.003 70.799 275.612 71.3471 275.679L90.8356 278.066C98.3273 267.164 107.197 251.414 115.826 230.87C117.141 227.741 118.42 224.783 119.664 221.986C108.667 222.987 92.7236 224.895 78.7195 227.545C71.3705 228.936 64.5859 230.525 59.3401 232.286C56.7159 233.166 54.5051 234.08 52.8118 235.018C51.0931 235.97 50.022 236.886 49.5288 237.715C49.2465 238.189 48.6323 238.345 48.1578 238.063C47.6834 237.781 47.5276 237.167 47.8096 236.692C48.5775 235.401 50.0282 234.274 51.8427 233.269C53.6831 232.249 56.0194 231.29 58.704 230.39C64.0758 228.587 70.9623 226.977 78.3473 225.58C92.9159 222.822 109.544 220.868 120.602 219.893C126.446 206.946 131.509 197.584 135.916 190.631C127.333 188.145 113.585 185.531 98.8205 185.388C83.3317 185.237 66.8514 187.806 54.034 195.96C53.5682 196.256 52.9503 196.119 52.6538 195.653C52.3575 195.187 52.495 194.569 52.9609 194.273C66.2444 185.822 83.1724 183.237 98.8402 183.389C114.132 183.537 128.345 186.295 137.045 188.877C137.736 187.824 138.411 186.83 139.069 185.891C141.415 182.544 143.324 180.185 144.99 178.379C142.061 171.178 137.029 160.752 131.215 152.296C128.244 147.973 125.1 144.213 121.967 141.658C118.815 139.089 115.825 137.86 113.106 138.266C100.588 140.137 94.1707 140.577 92.4735 140.556C91.9212 140.549 91.4785 140.096 91.4853 139.543C91.4923 138.991 91.9456 138.549 92.4976 138.556C94.018 138.575 100.294 138.158 112.811 136.288Z" fill="#4E6422"/>
<path d="M402.75 353L435 252.75L433.5 249L402.75 343.5V353Z" fill="#4E6422"/>
<path d="M441.235 218.625C427.239 217.907 428.834 230.1 431.381 236.287C430.808 241.545 426.576 236.379 424.532 233.139C421.399 228.745 412.512 221.674 402.026 228.546C388.918 237.136 401.85 257.048 406.262 263.014C410.674 268.98 412.447 269.54 412.737 261.588C412.969 255.226 417.015 252.504 419.009 251.938C421.985 252.502 426.77 254.714 422.103 259.049C416.269 264.468 415.312 271.949 413.822 276.745C412.331 281.54 421.314 287.734 426.991 291.9C432.668 296.067 430.2 287.012 428.2 281.75C426.199 276.489 427.796 269.152 429.567 265.863C431.337 262.574 438.198 260.112 434.085 269.287C429.971 278.461 432.583 279.692 431.24 288.208C429.897 296.725 434.269 300.276 443.558 308.303C450.99 314.725 447.896 303.134 445.42 296.536C443.996 289.374 442.508 276.317 447.946 281.392C454.743 287.735 451.814 294.13 452.683 302.824C453.379 309.78 457.825 311.306 459.961 311.2C462.421 310.578 467.793 309.855 469.595 311.928C471.847 314.521 473.127 314.809 472.378 309.51C471.63 304.21 473.43 305.096 478.422 295.158C482.417 287.207 474.86 281.687 470.583 279.921C466.047 277.562 456.31 271.604 453.643 266.641C450.31 260.438 466.408 269.199 471.741 276.815C476.006 282.908 477.88 280.23 478.283 278.13C478.464 275.872 478.741 270.312 478.399 266.13C477.97 260.902 455.797 254.62 452.546 253.245C449.294 251.871 448.56 248.659 452.118 248.018C455.675 247.376 460.059 249.167 466.789 252.769C472.173 255.65 471.474 251.847 470.452 249.586C466.544 239.565 455.23 219.343 441.235 218.625Z" fill="#66832C"/>
<path d="M407.357 242.29C407.867 240.479 409.513 239.593 411.321 239.2C413.152 238.802 415.452 238.83 417.842 239.081C421.884 239.507 426.412 240.599 429.882 241.634C429.616 240.742 429.437 239.975 429.186 239.126C429.031 238.596 429.334 238.04 429.863 237.884C430.393 237.729 430.949 238.032 431.105 238.561C431.713 240.624 431.872 242.021 433.676 245.705C435.567 242.539 438.641 238.889 442.686 236.681C445.099 235.364 447.869 234.553 450.931 234.684C453.996 234.816 457.287 235.887 460.741 238.232C461.198 238.542 461.317 239.164 461.007 239.621C460.697 240.078 460.074 240.197 459.618 239.886C456.425 237.719 453.487 236.795 450.846 236.682C448.203 236.569 445.79 237.265 443.644 238.436C439.52 240.687 436.432 244.673 434.772 247.836C436.306 250.705 438.453 254.268 441.533 258.802C447.252 255.137 460.512 251.911 473.979 264.373C474.384 264.748 474.408 265.381 474.033 265.786C473.658 266.192 473.026 266.216 472.62 265.841C459.947 254.114 447.739 257.23 442.665 260.452C444.486 263.077 446.6 266.006 449.064 269.285C453.473 275.152 457.094 280.495 459.991 285.169C462.494 285.369 467.851 286.771 472.99 291.066C473.414 291.42 473.47 292.05 473.117 292.473C472.762 292.897 472.132 292.954 471.708 292.6C467.816 289.348 463.83 287.913 461.345 287.392C462.549 289.405 463.607 291.277 464.525 292.994C464.642 293.121 464.72 293.273 464.76 293.434C465.042 293.969 465.313 294.487 465.568 294.99C467.165 298.144 468.232 300.695 468.794 302.526C469.072 303.432 469.244 304.218 469.275 304.835C469.29 305.139 469.275 305.472 469.178 305.78C469.077 306.098 468.848 306.493 468.381 306.687C467.871 306.899 467.286 306.656 467.074 306.146C466.917 305.768 467.01 305.348 467.276 305.07C467.277 305.035 467.28 304.99 467.277 304.935C467.259 304.562 467.142 303.961 466.882 303.113C466.367 301.434 465.355 298.997 463.784 295.894C463.738 295.802 463.688 295.711 463.641 295.618L460.003 300.785C459.685 301.237 459.061 301.344 458.61 301.027C458.158 300.709 458.05 300.085 458.368 299.633L462.596 293.627C459.371 287.638 454.413 279.732 447.466 270.486C446.61 269.347 445.795 268.248 445.019 267.189C443.556 271.395 441.761 277.147 440.512 282.495C439.795 285.562 439.266 288.466 439.077 290.857C438.982 292.053 438.973 293.096 439.061 293.953C439.15 294.823 439.331 295.425 439.555 295.797C439.839 296.27 439.686 296.885 439.213 297.169C438.739 297.453 438.126 297.3 437.841 296.826C437.402 296.095 437.175 295.161 437.072 294.157C436.967 293.139 436.982 291.966 437.082 290.699C437.283 288.165 437.837 285.151 438.564 282.04C439.968 276.028 442.046 269.543 443.593 265.228C439.471 259.505 436.563 255.01 434.47 251.4C432.029 253.76 428.851 257.65 426.4 262.503C423.642 267.964 421.837 274.574 422.953 281.558C423.039 282.103 422.668 282.615 422.123 282.703C421.578 282.79 421.065 282.418 420.978 281.873C419.776 274.352 421.731 267.311 424.614 261.602C427.295 256.294 430.809 252.076 433.456 249.604C433.21 249.158 432.977 248.727 432.758 248.31C431.807 246.501 431.168 245.116 430.709 243.983C427.201 242.859 422.077 241.539 417.632 241.071C415.319 240.827 413.268 240.823 411.746 241.154C410.201 241.49 409.49 242.094 409.282 242.832C407.849 247.926 406.882 250.438 406.539 251.111C406.289 251.603 405.687 251.799 405.195 251.548C404.703 251.298 404.507 250.696 404.758 250.204C405.001 249.726 405.922 247.388 407.357 242.29Z" fill="#4E6422"/>
</svg>
