<svg width="467" height="505" viewBox="0 0 467 505" fill="none" xmlns="http://www.w3.org/2000/svg">
<path d="M217.336 409.091C266.003 410.091 356.736 414.491 330.336 424.091C297.336 436.091 258.336 442.091 294.336 452.091C323.136 460.091 421.003 462.091 466.336 462.091" stroke="black"/>
<path d="M49.0267 504.68L0 444.829L131.799 399.623L198.335 448.013L52.5286 504.68H49.0267Z" fill="white"/>
<path d="M108.877 412.481L129.889 404.841L138.803 412.481L118.746 420.44L108.877 412.481Z" fill="#FEBFA7"/>
<path d="M42.0029 454.475C42.182 454.09 43.0877 452.617 44.1376 451.504C45.1696 450.41 46.8273 451.238 48.1896 450.807C49.6055 450.36 51.2133 449.63 52.9314 448.87C54.2382 448.263 55.102 447.831 56.4379 447.478C57.4525 447.215 59.1507 446.782 61.2547 446.059" stroke="#0F1836" stroke-width="1.5" stroke-linecap="round"/>
<path d="M66.7676 443.67C67.1496 443.278 69.0306 442.102 70.6665 441.589C72.113 441.136 73.8273 440.638 77.3798 439.107C79.5018 438.193 82.1414 437.052 85.0349 436.308C86.8816 435.833 88.5413 435.683 90.1893 434.576C91.5705 433.648 93.4825 433.213 95.3126 432.392C95.6953 432.148 96.0182 431.893 96.3299 431.686C96.6415 431.478 96.9321 431.325 97.9614 431.018" stroke="#0F1836" stroke-width="1.5" stroke-linecap="round"/>
<path d="M47.3691 461.803C47.5649 461.725 47.7606 461.646 48.3141 461.449C48.8676 461.251 49.7729 460.938 51.0663 460.521" stroke="#0F1836" stroke-width="1.5" stroke-linecap="round"/>
<path d="M55.2505 458.113C56.4465 457.258 59.5093 455.215 61.7436 454.533C65.7882 453.298 68.3807 452.345 70.2753 451.606C71.8801 450.98 74.6225 448.328 77.0339 447.344C79.3803 446.387 81.279 446.617 82.698 446.142C83.0164 445.994 83.323 445.819 83.835 445.619C84.3471 445.418 85.0554 445.197 86.2802 444.643" stroke="#0F1836" stroke-width="1.5" stroke-linecap="round"/>
<path d="M53.082 470.321C54.9771 469.446 60.0714 467.149 62.0533 466.687C64.5754 466.098 66.8748 465.331 69.198 463.205C70.4778 462.034 77.7762 460.55 82.3938 458.336C82.7721 457.981 82.9658 457.731 83.6025 457.334C84.2393 456.937 85.3133 456.4 86.5628 455.847" stroke="#0F1836" stroke-width="1.5" stroke-linecap="round"/>
<path d="M93.4185 453.357C94.2856 452.981 97.4176 451.289 100.583 449.918C101.423 449.649 102.27 449.432 103.035 449.178C103.801 448.924 104.459 448.639 105.54 448.112" stroke="#0F1836" stroke-width="1.5" stroke-linecap="round"/>
<ellipse cx="209.468" cy="17.6629" rx="134.331" ry="17.6629" fill="#FEBFA7"/>
<path d="M21.0723 435.544L104.354 199.17V131.81H300.312V199.17L413.6 434.319C403.403 444.579 272.433 468.093 205.009 468.093C137.586 468.093 33.4709 446.394 21.0723 435.544Z" fill="#C69629" fill-opacity="0.1"/>
<line x1="206.468" y1="318.401" x2="206.468" y2="151.627" stroke="#0F1836" stroke-width="6"/>
<mask id="mask0_70_1217" style="mask-type:alpha" maskUnits="userSpaceOnUse" x="75" y="17" width="269" height="188">
<path d="M343.334 187.719C343.641 188.146 343.798 188.578 343.798 189.014C343.797 197.577 283.656 204.517 209.468 204.517C135.28 204.517 75.1381 197.577 75.1372 189.014C75.1372 188.578 75.2952 188.146 75.6021 187.719V17.6628H343.334V187.719Z" fill="#D9D9D9"/>
</mask>
<g mask="url(#mask0_70_1217)">
<rect x="76.0669" y="6.50745" width="22.311" height="195.221" fill="#FEBFA7"/>
<rect x="165.311" y="12.0852" width="22.311" height="195.221" fill="#FEBFA7"/>
<rect x="254.555" y="9.29626" width="22.311" height="195.221" fill="#FEBFA7"/>
<rect x="120.688" y="12.0852" width="22.311" height="195.221" fill="#FEBFA7"/>
<rect x="209.933" y="17.6631" width="22.311" height="195.221" fill="#FEBFA7"/>
<rect x="299.177" y="14.874" width="22.311" height="195.221" fill="#FEBFA7"/>
<rect x="98.3779" y="6.50745" width="22.311" height="195.221" fill="#FFD3C2"/>
<rect x="187.622" y="12.0852" width="22.311" height="195.221" fill="#FFD3C2"/>
<rect x="276.865" y="9.29626" width="22.311" height="195.221" fill="#FFD3C2"/>
<rect x="143" y="12.0852" width="22.311" height="195.221" fill="#FFD3C2"/>
<rect x="232.244" y="17.6631" width="22.311" height="195.221" fill="#FFD3C2"/>
<rect x="321.488" y="14.874" width="22.311" height="195.221" fill="#FFD3C2"/>
</g>
<path d="M209.468 242.603C246.532 242.603 276.579 272.65 276.579 309.714V433.485H276.378C273.708 439.727 244.771 444.643 209.468 444.643C174.165 444.643 145.229 439.727 142.559 433.485H142.356V309.714C142.357 272.65 172.404 242.603 209.468 242.603Z" fill="#A7C6F6"/>
</svg>
