<svg width="1052" height="70" viewBox="0 0 1052 70" fill="none" xmlns="http://www.w3.org/2000/svg">
<path d="M30.144 68.544V9.696H0V0H72.672V9.696H42.624V68.544H30.144Z" fill="black"/>
<path d="M79.9515 68.544V0H91.9515V33.408L90.7035 31.968C92.1115 28.704 93.9355 26.048 96.1755 24C98.4155 21.952 101.072 20.416 104.144 19.392C107.216 18.368 110.608 17.856 114.32 17.856C119.248 17.856 123.439 18.752 126.896 20.544C130.416 22.336 133.104 24.96 134.96 28.416C136.816 31.872 137.743 36.128 137.743 41.184V68.544H125.743V43.584C125.743 38.4 124.464 34.336 121.904 31.392C119.408 28.384 115.408 26.88 109.904 26.88C106.256 26.88 103.087 27.648 100.399 29.184C97.7115 30.656 95.6315 32.704 94.1595 35.328C92.6875 37.888 91.9515 40.768 91.9515 43.968V68.544H79.9515Z" fill="black"/>
<path d="M177.015 69.888C170.615 69.888 165.047 68.8 160.311 66.624C155.575 64.448 151.895 61.408 149.271 57.504C146.711 53.6 145.431 49.024 145.431 43.776C145.431 40.704 145.911 37.824 146.871 35.136C147.831 32.448 149.207 30.048 150.999 27.936C152.791 25.824 154.967 24.032 157.527 22.56C160.087 21.024 162.999 19.872 166.263 19.104C169.591 18.272 173.239 17.856 177.207 17.856C181.751 17.856 185.911 18.432 189.687 19.584C193.527 20.672 196.791 22.4 199.479 24.768C202.231 27.072 204.311 30.048 205.719 33.696C207.127 37.344 207.767 41.696 207.639 46.752H152.919V39.36H195.351C195.031 37.184 194.391 35.296 193.431 33.696C192.471 32.096 191.191 30.752 189.591 29.664C187.991 28.576 186.135 27.776 184.023 27.264C181.975 26.688 179.671 26.4 177.111 26.4C174.551 26.4 172.215 26.688 170.103 27.264C168.055 27.776 166.231 28.544 164.631 29.568C163.031 30.592 161.687 31.84 160.599 33.312C159.575 34.72 158.775 36.32 158.199 38.112C157.687 39.84 157.431 41.728 157.431 43.776C157.431 47.168 158.167 50.208 159.639 52.896C161.111 55.52 163.319 57.6 166.263 59.136C169.271 60.608 172.951 61.344 177.303 61.344C181.655 61.344 185.207 60.768 187.959 59.616C190.711 58.464 192.791 56.8 194.199 54.624H206.679C205.719 57.504 204.055 60.096 201.687 62.4C199.383 64.64 196.183 66.464 192.087 67.872C188.055 69.216 183.031 69.888 177.015 69.888Z" fill="black"/>
<path d="M245.173 68.544V0H257.749V68.544H245.173ZM304.789 68.544V0H317.269V68.544H304.789ZM256.213 38.496V28.704H306.325V38.496H256.213Z" fill="black"/>
<path d="M359.086 69.888C352.558 69.888 346.895 68.832 342.095 66.72C337.295 64.544 333.582 61.504 330.958 57.6C328.398 53.632 327.118 49.024 327.118 43.776C327.118 40.704 327.599 37.824 328.559 35.136C329.519 32.448 330.894 30.048 332.686 27.936C334.542 25.824 336.75 24 339.31 22.464C341.934 20.928 344.91 19.776 348.238 19.008C351.566 18.24 355.182 17.856 359.086 17.856C365.678 17.856 371.374 18.944 376.174 21.12C380.974 23.232 384.655 26.24 387.215 30.144C389.775 33.984 391.055 38.528 391.055 43.776C391.055 46.976 390.575 49.92 389.615 52.608C388.719 55.296 387.343 57.696 385.487 59.808C383.695 61.92 381.487 63.744 378.863 65.28C376.303 66.752 373.359 67.872 370.031 68.64C366.703 69.472 363.054 69.888 359.086 69.888ZM359.086 61.056C361.71 61.056 364.047 60.768 366.095 60.192C368.207 59.616 370.03 58.816 371.566 57.792C373.166 56.704 374.479 55.456 375.503 54.048C376.591 52.64 377.39 51.072 377.902 49.344C378.414 47.552 378.671 45.696 378.671 43.776C378.671 40.576 377.934 37.696 376.462 35.136C375.054 32.512 372.911 30.464 370.031 28.992C367.151 27.456 363.502 26.688 359.086 26.688C356.526 26.688 354.19 26.976 352.078 27.552C350.03 28.128 348.207 28.928 346.607 29.952C345.071 30.976 343.759 32.224 342.671 33.696C341.647 35.104 340.878 36.672 340.366 38.4C339.854 40.064 339.599 41.856 339.599 43.776C339.599 46.976 340.303 49.888 341.711 52.512C343.183 55.136 345.358 57.216 348.238 58.752C351.182 60.288 354.798 61.056 359.086 61.056Z" fill="black"/>
<path d="M422.201 69.888C418.553 69.888 415.257 69.376 412.313 68.352C409.433 67.328 407.001 65.824 405.017 63.84C403.033 61.856 401.497 59.424 400.409 56.544C399.385 53.6 398.873 50.272 398.873 46.56V19.2H410.873V44.16C410.873 47.552 411.417 50.528 412.505 53.088C413.657 55.584 415.385 57.504 417.689 58.848C420.057 60.192 423.065 60.864 426.713 60.864C430.425 60.864 433.625 60.128 436.313 58.656C439.001 57.12 441.049 55.072 442.457 52.512C443.929 49.888 444.665 46.976 444.665 43.776V19.2H456.569V68.544H444.665V54.336L445.817 55.872C443.897 60.608 440.889 64.128 436.793 66.432C432.697 68.736 427.833 69.888 422.201 69.888Z" fill="black"/>
<path d="M493.443 69.888C488.387 69.888 484.067 69.44 480.483 68.544C476.963 67.712 474.083 66.56 471.843 65.088C469.667 63.552 468.003 61.856 466.851 60C465.763 58.144 465.123 56.192 464.931 54.144H477.123C477.443 55.36 478.147 56.544 479.235 57.696C480.323 58.784 482.019 59.712 484.323 60.48C486.627 61.184 489.667 61.536 493.443 61.536C497.027 61.536 499.939 61.248 502.179 60.672C504.419 60.032 506.051 59.2 507.075 58.176C508.099 57.152 508.611 55.968 508.611 54.624C508.611 53.344 508.035 52.192 506.883 51.168C505.795 50.08 503.811 49.344 500.931 48.96L484.419 46.752C478.211 45.984 473.603 44.48 470.595 42.24C467.651 40 466.179 36.928 466.179 33.024C466.179 30.848 466.723 28.832 467.811 26.976C468.899 25.12 470.531 23.52 472.707 22.176C474.883 20.832 477.603 19.776 480.867 19.008C484.195 18.24 488.067 17.856 492.483 17.856C498.307 17.856 503.107 18.464 506.883 19.68C510.659 20.896 513.507 22.624 515.427 24.864C517.411 27.04 518.627 29.6 519.075 32.544H506.883C506.563 31.328 505.891 30.272 504.867 29.376C503.843 28.416 502.307 27.648 500.259 27.072C498.211 26.496 495.523 26.208 492.195 26.208C489.123 26.208 486.531 26.496 484.419 27.072C482.371 27.584 480.835 28.32 479.811 29.28C478.851 30.176 478.371 31.264 478.371 32.544C478.371 34.016 479.011 35.168 480.291 36C481.571 36.832 483.427 37.408 485.859 37.728L502.851 40.032C506.435 40.48 509.603 41.248 512.355 42.336C515.107 43.424 517.251 44.896 518.787 46.752C520.323 48.608 521.091 51.072 521.091 54.144C521.091 56.768 520.451 59.072 519.171 61.056C517.891 62.976 516.035 64.608 513.603 65.952C511.235 67.232 508.355 68.192 504.963 68.832C501.571 69.536 497.731 69.888 493.443 69.888Z" fill="black"/>
<path d="M558.765 69.888C552.365 69.888 546.797 68.8 542.061 66.624C537.325 64.448 533.645 61.408 531.021 57.504C528.461 53.6 527.181 49.024 527.181 43.776C527.181 40.704 527.661 37.824 528.621 35.136C529.581 32.448 530.957 30.048 532.749 27.936C534.541 25.824 536.717 24.032 539.277 22.56C541.837 21.024 544.749 19.872 548.013 19.104C551.341 18.272 554.989 17.856 558.957 17.856C563.501 17.856 567.661 18.432 571.437 19.584C575.277 20.672 578.541 22.4 581.229 24.768C583.981 27.072 586.061 30.048 587.469 33.696C588.877 37.344 589.517 41.696 589.389 46.752H534.669V39.36H577.101C576.781 37.184 576.141 35.296 575.181 33.696C574.221 32.096 572.941 30.752 571.341 29.664C569.741 28.576 567.885 27.776 565.773 27.264C563.725 26.688 561.421 26.4 558.861 26.4C556.301 26.4 553.965 26.688 551.853 27.264C549.805 27.776 547.981 28.544 546.381 29.568C544.781 30.592 543.437 31.84 542.349 33.312C541.325 34.72 540.525 36.32 539.949 38.112C539.437 39.84 539.181 41.728 539.181 43.776C539.181 47.168 539.917 50.208 541.389 52.896C542.861 55.52 545.069 57.6 548.013 59.136C551.021 60.608 554.701 61.344 559.053 61.344C563.405 61.344 566.957 60.768 569.709 59.616C572.461 58.464 574.541 56.8 575.949 54.624H588.429C587.469 57.504 585.805 60.096 583.437 62.4C581.133 64.64 577.933 66.464 573.837 67.872C569.805 69.216 564.781 69.888 558.765 69.888Z" fill="black"/>
<path d="M626.923 68.544V0H644.875L671.851 61.248H666.091L693.259 0H710.443V68.544H698.155V7.68L701.035 8.064L673.675 68.544H662.827L635.563 8.064L638.443 7.68V68.544H626.923Z" fill="black"/>
<path d="M722.516 68.544V19.2H734.516V68.544H722.516ZM722.132 11.232V0H734.996V11.232H722.132Z" fill="black"/>
<path d="M745.199 68.544V19.2H757.199V33.504L756.143 31.968C757.423 28.704 759.215 26.048 761.519 24C763.887 21.952 766.671 20.416 769.871 19.392C773.071 18.368 776.559 17.856 780.335 17.856C784.111 17.856 787.471 18.368 790.415 19.392C793.423 20.416 795.951 21.92 797.999 23.904C800.047 25.824 801.615 28.256 802.703 31.2C803.791 34.08 804.335 37.408 804.335 41.184V68.544H792.335V43.584C792.335 40.128 791.727 37.152 790.511 34.656C789.359 32.16 787.567 30.24 785.135 28.896C782.703 27.552 779.599 26.88 775.823 26.88C772.047 26.88 768.751 27.648 765.935 29.184C763.183 30.656 761.039 32.704 759.503 35.328C757.967 37.888 757.199 40.768 757.199 43.968V68.544H745.199Z" fill="black"/>
<path d="M839.641 69.888C834.649 69.888 830.042 68.896 825.818 66.912C821.658 64.864 818.297 61.888 815.737 57.984C813.241 54.08 811.994 49.344 811.994 43.776C811.994 40.448 812.442 37.408 813.338 34.656C814.298 31.904 815.642 29.504 817.37 27.456C819.098 25.344 821.113 23.584 823.417 22.176C825.721 20.704 828.25 19.616 831.002 18.912C833.754 18.208 836.633 17.856 839.641 17.856C843.417 17.856 846.937 18.336 850.201 19.296C853.465 20.256 856.313 21.696 858.745 23.616C861.241 25.536 863.226 27.936 864.698 30.816L863.45 32.64V0H875.45V68.544H863.45V55.008L864.698 56.928C863.162 59.872 861.114 62.304 858.554 64.224C856.058 66.144 853.178 67.584 849.914 68.544C846.65 69.44 843.225 69.888 839.641 69.888ZM843.578 61.056C845.946 61.056 848.122 60.768 850.106 60.192C852.154 59.616 854.01 58.816 855.674 57.792C857.338 56.768 858.746 55.552 859.898 54.144C861.114 52.672 862.042 51.072 862.682 49.344C863.322 47.552 863.641 45.696 863.641 43.776C863.641 40.512 862.778 37.6 861.049 35.04C859.321 32.48 856.953 30.464 853.945 28.992C851.001 27.456 847.546 26.688 843.578 26.688C841.21 26.688 839.001 26.976 836.953 27.552C834.969 28.128 833.21 28.928 831.674 29.952C830.138 30.912 828.825 32.128 827.737 33.6C826.713 35.008 825.914 36.576 825.338 38.304C824.762 39.968 824.474 41.792 824.474 43.776C824.474 47.04 825.21 49.984 826.682 52.608C828.218 55.232 830.425 57.312 833.305 58.848C836.185 60.32 839.61 61.056 843.578 61.056Z" fill="black"/>
<path d="M915.39 69.888C908.99 69.888 903.422 68.8 898.686 66.624C893.95 64.448 890.27 61.408 887.646 57.504C885.086 53.6 883.806 49.024 883.806 43.776C883.806 40.704 884.286 37.824 885.246 35.136C886.206 32.448 887.582 30.048 889.374 27.936C891.166 25.824 893.342 24.032 895.902 22.56C898.462 21.024 901.374 19.872 904.638 19.104C907.966 18.272 911.614 17.856 915.582 17.856C920.126 17.856 924.286 18.432 928.062 19.584C931.902 20.672 935.166 22.4 937.854 24.768C940.606 27.072 942.686 30.048 944.094 33.696C945.502 37.344 946.142 41.696 946.014 46.752H891.294V39.36H933.726C933.406 37.184 932.766 35.296 931.806 33.696C930.846 32.096 929.566 30.752 927.966 29.664C926.366 28.576 924.51 27.776 922.398 27.264C920.35 26.688 918.046 26.4 915.486 26.4C912.926 26.4 910.59 26.688 908.478 27.264C906.43 27.776 904.606 28.544 903.006 29.568C901.406 30.592 900.062 31.84 898.974 33.312C897.95 34.72 897.15 36.32 896.574 38.112C896.062 39.84 895.806 41.728 895.806 43.776C895.806 47.168 896.542 50.208 898.014 52.896C899.486 55.52 901.694 57.6 904.638 59.136C907.646 60.608 911.326 61.344 915.678 61.344C920.03 61.344 923.582 60.768 926.334 59.616C929.086 58.464 931.166 56.8 932.574 54.624H945.054C944.094 57.504 942.43 60.096 940.062 62.4C937.758 64.64 934.558 66.464 930.462 67.872C926.43 69.216 921.406 69.888 915.39 69.888Z" fill="black"/>
<path d="M954.262 68.544V19.2H966.262V36L965.398 35.712C966.23 31.616 967.478 28.384 969.142 26.016C970.87 23.648 972.982 21.92 975.478 20.832C978.038 19.744 980.918 19.2 984.118 19.2H989.494V29.472H983.446C980.054 29.472 977.046 30.304 974.422 31.968C971.862 33.632 969.846 35.84 968.374 38.592C966.966 41.344 966.262 44.416 966.262 47.808V68.544H954.262Z" fill="black"/>
<path d="M1024.07 69.888C1019.01 69.888 1014.69 69.44 1011.11 68.544C1007.59 67.712 1004.71 66.56 1002.47 65.088C1000.29 63.552 998.628 61.856 997.476 60C996.388 58.144 995.748 56.192 995.556 54.144H1007.75C1008.07 55.36 1008.77 56.544 1009.86 57.696C1010.95 58.784 1012.64 59.712 1014.95 60.48C1017.25 61.184 1020.29 61.536 1024.07 61.536C1027.65 61.536 1030.56 61.248 1032.8 60.672C1035.04 60.032 1036.68 59.2 1037.7 58.176C1038.72 57.152 1039.24 55.968 1039.24 54.624C1039.24 53.344 1038.66 52.192 1037.51 51.168C1036.42 50.08 1034.44 49.344 1031.56 48.96L1015.04 46.752C1008.84 45.984 1004.23 44.48 1001.22 42.24C998.276 40 996.804 36.928 996.804 33.024C996.804 30.848 997.348 28.832 998.436 26.976C999.524 25.12 1001.16 23.52 1003.33 22.176C1005.51 20.832 1008.23 19.776 1011.49 19.008C1014.82 18.24 1018.69 17.856 1023.11 17.856C1028.93 17.856 1033.73 18.464 1037.51 19.68C1041.28 20.896 1044.13 22.624 1046.05 24.864C1048.04 27.04 1049.25 29.6 1049.7 32.544H1037.51C1037.19 31.328 1036.52 30.272 1035.49 29.376C1034.47 28.416 1032.93 27.648 1030.88 27.072C1028.84 26.496 1026.15 26.208 1022.82 26.208C1019.75 26.208 1017.16 26.496 1015.04 27.072C1013 27.584 1011.46 28.32 1010.44 29.28C1009.48 30.176 1009 31.264 1009 32.544C1009 34.016 1009.64 35.168 1010.92 36C1012.2 36.832 1014.05 37.408 1016.48 37.728L1033.48 40.032C1037.06 40.48 1040.23 41.248 1042.98 42.336C1045.73 43.424 1047.88 44.896 1049.41 46.752C1050.95 48.608 1051.72 51.072 1051.72 54.144C1051.72 56.768 1051.08 59.072 1049.8 61.056C1048.52 62.976 1046.66 64.608 1044.23 65.952C1041.86 67.232 1038.98 68.192 1035.59 68.832C1032.2 69.536 1028.36 69.888 1024.07 69.888Z" fill="black"/>
</svg>
