<svg width="434" height="464" viewBox="0 0 434 464" fill="none" xmlns="http://www.w3.org/2000/svg">
<rect x="75.5337" y="38.6635" width="283.303" height="394.951" fill="#A9C4ED"/>
<rect x="75.5337" y="302.587" width="287.417" height="131.026" fill="#D1E2FC"/>
<path d="M175.835 248.316V303.482V321.237H340.325V248.316H279.927V208.104L175.835 248.316Z" fill="#87B2F3"/>
<path d="M167.406 122.767H133.604C133.604 114.12 139.476 114.807 142.412 116.232C143.205 114.723 146.173 111.707 151.695 111.707C157.218 111.707 159.392 116.064 159.789 118.242C163.216 117.036 166.295 120.756 167.406 122.767Z" fill="#C1D7F8"/>
<path d="M167.406 122.767H133.604C133.604 114.12 139.476 114.807 142.412 116.232C143.205 114.723 146.173 111.707 151.695 111.707C157.218 111.707 159.392 116.064 159.789 118.242C163.216 117.036 166.295 120.756 167.406 122.767Z" fill="#C1D7F8"/>
<path d="M185.849 144.812H160.026C160.026 138.207 164.512 138.731 166.755 139.819C167.361 138.667 169.628 136.363 173.847 136.363C178.066 136.363 179.726 139.691 180.029 141.356C182.648 140.434 185 143.276 185.849 144.812Z" fill="#C1D7F8"/>
<rect x="20.5093" y="19.326" width="395.354" height="8.96162" fill="#E95218"/>
<ellipse cx="12.0233" cy="23.8065" rx="12.0233" ry="12.6956" fill="#E95218"/>
<ellipse cx="421.521" cy="23.8065" rx="12.0233" ry="12.6956" fill="#E95218"/>
<rect x="59.6772" y="426.738" width="317.673" height="21.5257" fill="#E5EFFF"/>
<rect x="59.0762" y="27.9005" width="317.673" height="14.5842" fill="white"/>
<rect x="59.6772" y="422.851" width="317.673" height="21.5257" fill="white"/>
<rect x="28.5537" width="6.65781" height="463.793" fill="#FEBFA7"/>
<rect x="55.1841" width="6.65781" height="463.793" fill="#FEBFA7"/>
<rect x="81.814" width="6.65781" height="463.793" fill="#FEBFA7"/>
<rect x="41.8691" width="6.65781" height="463.793" fill="#FEBFA7"/>
<rect x="68.5005" width="6.65781" height="463.793" fill="#FEBFA7"/>
<rect x="95.1309" width="6.65781" height="463.793" fill="#FEBFA7"/>
<rect x="35.2104" width="6.65781" height="463.793" fill="#FFD3C2"/>
<rect x="61.8408" width="6.65781" height="463.793" fill="#FFD3C2"/>
<rect x="88.4736" width="6.65781" height="463.793" fill="#FFD3C2"/>
<rect x="48.5259" width="6.65781" height="463.793" fill="#FFD3C2"/>
<rect x="75.1587" width="6.65781" height="463.793" fill="#FFD3C2"/>
<rect x="101.789" width="6.65781" height="463.793" fill="#FFD3C2"/>
<rect x="325.924" width="6.65781" height="463.793" fill="#FEBFA7"/>
<rect x="352.556" width="6.65781" height="463.793" fill="#FEBFA7"/>
<rect x="379.186" width="6.65781" height="463.793" fill="#FEBFA7"/>
<rect x="339.239" width="6.65781" height="463.793" fill="#FEBFA7"/>
<rect x="365.87" width="6.65781" height="463.793" fill="#FEBFA7"/>
<rect x="392.502" width="6.65781" height="463.793" fill="#FEBFA7"/>
<rect x="332.583" width="6.65781" height="463.793" fill="#FFD3C2"/>
<rect x="359.213" width="6.65781" height="463.793" fill="#FFD3C2"/>
<rect x="385.844" width="6.65781" height="463.793" fill="#FFD3C2"/>
<rect x="345.897" width="6.65781" height="463.793" fill="#FFD3C2"/>
<rect x="372.529" width="6.65781" height="463.793" fill="#FFD3C2"/>
<rect x="399.159" width="6.65781" height="463.793" fill="#FFD3C2"/>
</svg>
